<?xml version="1.0" encoding="UTF-8"?>
<svg version="1.1" xmlns="http://www.w3.org/2000/svg" width="423" height="405">
<path d="M0 0 C1.10279297 0.4223291 2.20558594 0.8446582 3.34179688 1.27978516 C4.51935547 1.73788574 5.69691406 2.19598633 6.91015625 2.66796875 C8.18921072 3.15997309 9.46851456 3.65132957 10.74804688 4.14208984 C13.45290841 5.18054898 16.15642019 6.22241404 18.85888672 7.26708984 C24.87214907 9.5907549 30.89409149 11.89169123 36.91574097 14.19351196 C38.98543177 14.98535655 41.05441445 15.77902878 43.12329102 16.57299805 C51.73288615 19.87359777 60.35876762 23.1281194 68.99609375 26.35546875 C72.09288349 27.5153111 75.18951894 28.67556467 78.28613281 29.83587646 C80.31746327 30.59531706 82.34968413 31.35238052 84.3828125 32.10699463 C87.23527234 33.16580358 90.0846591 34.23253027 92.93359375 35.30078125 C93.78931976 35.61587646 94.64504578 35.93097168 95.52670288 36.25561523 C103.37954049 39.21621518 103.37954049 39.21621518 105.97265625 41.85546875 C106.72265625 45.54296875 106.72265625 45.54296875 106.97265625 48.85546875 C107.648125 49.0978125 108.32359375 49.34015625 109.01953125 49.58984375 C109.9115625 49.925 110.80359375 50.26015625 111.72265625 50.60546875 C112.604375 50.9303125 113.48609375 51.25515625 114.39453125 51.58984375 C117.3783123 53.05460899 118.91863435 54.22873215 120.97265625 56.85546875 C121.42675781 60.24707031 121.42675781 60.24707031 121.36328125 64.24609375 C121.35762146 64.9507074 121.35196167 65.65532104 121.34613037 66.38128662 C121.32380703 68.62338303 121.27362379 70.86385863 121.22265625 73.10546875 C121.20258577 74.6288831 121.18433595 76.15232261 121.16796875 77.67578125 C121.12395743 81.40286705 121.05495997 85.12900962 120.97265625 88.85546875 C119.4141387 89.67558187 117.85063909 90.48623088 116.28515625 91.29296875 C115.41503906 91.74542969 114.54492188 92.19789063 113.6484375 92.6640625 C110.97265625 93.85546875 110.97265625 93.85546875 105.97265625 94.85546875 C106.30265625 113.66546875 106.63265625 132.47546875 106.97265625 151.85546875 C108.29265625 152.51546875 109.61265625 153.17546875 110.97265625 153.85546875 C111.07160722 157.78800883 111.14416045 161.72006621 111.19238281 165.65356445 C111.22236906 167.64885889 111.27319411 169.64380457 111.32421875 171.63867188 C111.33710938 172.89228516 111.35 174.14589844 111.36328125 175.4375 C111.38422852 176.59483643 111.40517578 177.75217285 111.42675781 178.94458008 C110.85387128 182.61690595 109.86196991 182.74221319 106.97265625 184.85546875 C106.69848877 186.01183838 106.42432129 187.16820801 106.1418457 188.35961914 C104.97265625 191.85546875 104.97265625 191.85546875 102.07495117 193.56811523 C100.81453939 194.00323174 99.54345168 194.40811209 98.265625 194.7890625 C96.80123123 195.28097324 95.33687806 195.77300485 93.87255859 196.26513672 C93.08105408 196.51978699 92.28954956 196.77443726 91.47406006 197.0368042 C87.96461484 198.1853826 84.49641468 199.44102899 81.0223999 200.69198608 C76.1177743 202.45592851 71.20016402 204.18321425 66.28515625 205.91796875 C64.166796 206.66689765 62.04846962 207.41592235 59.93017578 208.16503906 C45.26792294 213.3480857 30.5991665 218.51270092 15.9230957 223.65649414 C15.2241066 223.90174332 14.52511749 224.14699249 13.8049469 224.39967346 C12.4534091 224.87325109 11.10140261 225.34549369 9.74888611 225.81626892 C6.51458465 226.94534693 3.29627648 228.10314778 0.09472656 229.32226562 C-1.12891602 229.78181641 -2.35255859 230.24136719 -3.61328125 230.71484375 C-4.68368652 231.12702148 -5.7540918 231.53919922 -6.85693359 231.96386719 C-14.62028334 234.14712248 -20.35307264 231.96978743 -27.578125 229.1640625 C-28.5909404 228.78113541 -29.6037558 228.39820831 -30.64726257 228.00367737 C-33.88233727 226.77754069 -37.11103088 225.53548836 -40.33984375 224.29296875 C-42.46770296 223.48398367 -44.59595506 222.67603125 -46.72460938 221.86914062 C-48.82176937 221.0720217 -50.91877598 220.27449911 -53.015625 219.4765625 C-54.55562668 218.89060806 -54.55562668 218.89060806 -56.1267395 218.29281616 C-60.8876704 216.47235534 -65.62941263 214.62212017 -70.33740234 212.66845703 C-71.15274948 212.33507828 -71.96809662 212.00169952 -72.80815125 211.65821838 C-74.30083122 211.04494677 -75.78827134 210.41867123 -77.26863098 209.77622986 C-83.46577201 207.24565006 -88.0474921 208.15257322 -94.19140625 210.18359375 C-100.46557913 211.61571297 -105.65669493 208.98370434 -111.40234375 206.60546875 C-112.48128906 206.18394531 -113.56023437 205.76242187 -114.671875 205.328125 C-122.41483655 202.26380688 -122.41483655 202.26380688 -126.02734375 199.85546875 C-126.13046875 198.55609375 -126.23359375 197.25671875 -126.33984375 195.91796875 C-126.44887147 193.78208811 -126.44887147 193.78208811 -127.02734375 191.85546875 C-129.9118665 189.82890492 -129.9118665 189.82890492 -133.02734375 188.85546875 C-134.72402582 187.15878668 -134.14703368 185.04414857 -134.15176392 182.78106689 C-134.14816864 182.05530457 -134.14457336 181.32954224 -134.14086914 180.58178711 C-134.14101517 179.82086258 -134.14116119 179.05993805 -134.14131165 178.2759552 C-134.14061237 175.74904577 -134.1328193 173.22220913 -134.125 170.6953125 C-134.12313587 168.94796285 -134.12171195 167.20061268 -134.12071228 165.45326233 C-134.11688668 160.84514941 -134.10705604 156.2370678 -134.0960083 151.62896729 C-134.08579509 146.93038354 -134.08121485 142.23179476 -134.07617188 137.53320312 C-134.0654338 128.30727788 -134.04835688 119.08137591 -134.02734375 109.85546875 C-134.98447266 109.56542969 -134.98447266 109.56542969 -135.9609375 109.26953125 C-136.78722656 109.00914062 -137.61351562 108.74875 -138.46484375 108.48046875 C-139.70041016 108.09761719 -139.70041016 108.09761719 -140.9609375 107.70703125 C-143.02734375 106.85546875 -143.02734375 106.85546875 -144.02734375 104.85546875 C-144.33228776 100.32517768 -144.38356041 95.79152393 -144.43237305 91.25244141 C-144.45397233 89.74114152 -144.48809941 88.22996739 -144.53491211 86.71923828 C-144.60188424 84.53751976 -144.629358 82.35838217 -144.6484375 80.17578125 C-144.67349365 78.86883301 -144.6985498 77.56188477 -144.72436523 76.21533203 C-144.02734375 72.85546875 -144.02734375 72.85546875 -141.17602539 70.46044922 C-138.02734375 68.85546875 -138.02734375 68.85546875 -135.02734375 67.85546875 C-135.0022876 67.10861816 -134.97723145 66.36176758 -134.95141602 65.59228516 C-134.83566162 62.22149608 -134.71284247 58.85100092 -134.58984375 55.48046875 C-134.55052734 54.30484375 -134.51121094 53.12921875 -134.47070312 51.91796875 C-134.42880859 50.79648438 -134.38691406 49.675 -134.34375 48.51953125 C-134.30709229 47.4826416 -134.27043457 46.44575195 -134.23266602 45.37744141 C-134.02734375 42.85546875 -134.02734375 42.85546875 -133.02734375 40.85546875 C-130.99403381 39.88500977 -130.99403381 39.88500977 -128.27758789 38.859375 C-127.26044205 38.47136719 -126.2432962 38.08335938 -125.19532776 37.68359375 C-124.0789946 37.2659375 -122.96266144 36.84828125 -121.8125 36.41796875 C-120.65479599 35.97839844 -119.49709198 35.53882813 -118.30430603 35.0859375 C-115.19748438 33.90765155 -112.08850355 32.73545257 -108.97827148 31.56622314 C-105.92193723 30.41589954 -102.8682982 29.258475 -99.81445312 28.1015625 C-96.17566522 26.7233826 -92.53669048 25.34571569 -88.89686584 23.97027588 C-73.94361323 18.31888255 -58.9919413 12.65625226 -44.14915466 6.71960449 C-41.02157167 5.47084959 -37.88758411 4.23877541 -34.75219727 3.00976562 C-33.19360575 2.39358215 -31.63836484 1.76887136 -30.08618164 1.13671875 C-27.76101067 0.19227424 -25.42553647 -0.72089811 -23.0859375 -1.62890625 C-22.40462265 -1.91409119 -21.7233078 -2.19927612 -21.02134705 -2.49310303 C-13.56454667 -5.31328666 -7.17451271 -2.77223317 0 0 Z " fill="#BA7ABC" transform="translate(233.02734375,87.14453125)"/>
<path d="M0 0 C0.99 0.495 0.99 0.495 2 1 C2.40729228 3.32156597 2.74438677 5.6568787 3 8 C3.67546875 8.24234375 4.3509375 8.4846875 5.046875 8.734375 C6.38492188 9.23710937 6.38492188 9.23710937 7.75 9.75 C8.63171875 10.07484375 9.5134375 10.3996875 10.421875 10.734375 C13.40565605 12.19914024 14.9459781 13.3732634 17 16 C17.45410156 19.39160156 17.45410156 19.39160156 17.390625 23.390625 C17.38496521 24.09523865 17.37930542 24.79985229 17.37347412 25.52581787 C17.35115078 27.76791428 17.30096754 30.00838988 17.25 32.25 C17.22992952 33.77341435 17.2116797 35.29685386 17.1953125 36.8203125 C17.15130118 40.5473983 17.08230372 44.27354087 17 48 C15.44148245 48.82011312 13.87798284 49.63076213 12.3125 50.4375 C11.00732422 51.11619141 11.00732422 51.11619141 9.67578125 51.80859375 C7 53 7 53 2 54 C2.33 72.81 2.66 91.62 3 111 C4.98 111.99 4.98 111.99 7 113 C7.09895097 116.93254008 7.1715042 120.86459746 7.21972656 124.7980957 C7.24971281 126.79339014 7.30053786 128.78833582 7.3515625 130.78320312 C7.37089844 132.66362305 7.37089844 132.66362305 7.390625 134.58203125 C7.4220459 136.31803589 7.4220459 136.31803589 7.45410156 138.08911133 C6.88121503 141.7614372 5.88931366 141.88674444 3 144 C2.72583252 145.15636963 2.45166504 146.31273926 2.16918945 147.50415039 C1 151 1 151 -1.89770508 152.71264648 C-3.15811686 153.14776299 -4.42920457 153.55264334 -5.70703125 153.93359375 C-7.17142502 154.42550449 -8.63577819 154.9175361 -10.10009766 155.40966797 C-11.28735443 155.79164337 -11.28735443 155.79164337 -12.49859619 156.18133545 C-16.00804141 157.32991385 -19.47624157 158.58556024 -22.95025635 159.83651733 C-27.85488195 161.60045976 -32.77249223 163.3277455 -37.6875 165.0625 C-39.80586025 165.8114289 -41.92418663 166.5604536 -44.04248047 167.30957031 C-58.70473331 172.49261695 -73.37348975 177.65723217 -88.04956055 182.80102539 C-88.74879135 183.04627457 -89.44802216 183.29152374 -90.16844177 183.54420471 C-91.51775207 184.01717008 -92.86732216 184.48939505 -94.21717834 184.96080017 C-97.4825572 186.10372753 -100.73855999 187.26668661 -103.98339844 188.46679688 C-104.94105606 188.81819733 -104.94105606 188.81819733 -105.9180603 189.17669678 C-107.65470708 189.81568864 -109.3887351 190.46178516 -111.12255859 191.10839844 C-114 192 -114 192 -118 192 C-118 174.18 -118 156.36 -118 138 C-112.10668069 135.38074698 -106.37944456 132.96961564 -100.31640625 130.87109375 C-98.71405844 130.30571894 -97.11184868 129.73995275 -95.50976562 129.17382812 C-93.02045148 128.29842961 -90.53013724 127.42626393 -88.03735352 126.56079102 C-85.6062709 125.7148776 -83.17989557 124.85648624 -80.75390625 123.99609375 C-80.00500626 123.73976669 -79.25610626 123.48343964 -78.48451233 123.21934509 C-74.01429979 121.62577362 -74.01429979 121.62577362 -71 118 C-70.60612212 115.67612053 -70.26513915 113.34206251 -70 111 C-79.9147158 112.97746774 -89.09080622 116.03611779 -98.5 119.625 C-100.49996932 120.38224177 -102.50079407 121.13702289 -104.5032959 121.88754272 C-106.29905141 122.56133982 -108.09200387 123.24259383 -109.88476562 123.92431641 C-113 125 -113 125 -118 126 C-118 99.6 -118 73.2 -118 46 C-112.16801223 43.40800544 -106.38414413 40.91017619 -100.4375 38.625 C-99.66664063 38.32682373 -98.89578125 38.02864746 -98.1015625 37.72143555 C-92.24337676 35.46169553 -86.36679682 33.25242906 -80.48266602 31.0612793 C-76.92618115 29.73401934 -73.39075184 28.36899505 -69.875 26.9375 C-65.8527926 25.32179974 -61.81180589 23.76363748 -57.75 22.25 C-56.61046875 21.82203125 -55.4709375 21.3940625 -54.296875 20.953125 C-50.9969929 19.99913065 -48.41311307 19.73745284 -45 20 C-42.91795642 22.08204358 -43.74178708 26.5338556 -43.68359375 29.41015625 C-43.66281265 30.25219101 -43.64203156 31.09422577 -43.62062073 31.96177673 C-43.55503188 34.66193179 -43.49619724 37.36218717 -43.4375 40.0625 C-43.39432363 41.88868241 -43.35070964 43.71485454 -43.30664062 45.54101562 C-43.19934106 50.02723992 -43.09810034 54.5135655 -43 59 C-38.97128525 60.03595522 -37.34944269 59.86988854 -33 59 C-32.67 43.49 -32.34 27.98 -32 12 C-26.39 10.02 -20.78 8.04 -15 6 C-10.93404227 4.38600716 -6.90722384 2.70835876 -2.87890625 1.00390625 C-1.92886719 0.67261719 -0.97882813 0.34132812 0 0 Z " fill="#9658A9" transform="translate(337,128)"/>
<path d="M0 0 C1.03761475 0.3400708 2.07522949 0.6801416 3.14428711 1.03051758 C4.57140015 1.58195435 4.57140015 1.58195435 6.02734375 2.14453125 C7.13013672 2.56686035 8.23292969 2.98918945 9.36914062 3.42431641 C10.54669922 3.88241699 11.72425781 4.34051758 12.9375 4.8125 C14.21655447 5.30450434 15.49585831 5.79586082 16.77539062 6.28662109 C19.48025216 7.32508023 22.18376394 8.36694529 24.88623047 9.41162109 C30.89971145 11.73537063 36.92180232 14.03659089 42.94363403 16.33859253 C45.01144895 17.12937838 47.07886688 17.92119532 49.14624023 18.71313477 C57.78711316 22.02093085 66.43732437 25.30343003 75.09375 28.5703125 C76.12282471 28.95869293 77.15189941 29.34707336 78.2121582 29.7472229 C83.32431176 31.67601112 88.43716725 33.60291923 93.55078125 35.52783203 C95.41927428 36.23208722 97.28776402 36.93635112 99.15625 37.640625 C100.02229858 37.96604279 100.88834717 38.29146057 101.78063965 38.6267395 C102.57296997 38.92555023 103.36530029 39.22436096 104.18164062 39.53222656 C104.8740686 39.79279846 105.56649658 40.05337036 106.27990723 40.32183838 C108 41 108 41 110 42 C110 42.66 110 43.32 110 44 C83.01030928 55 83.01030928 55 78 55 C78 70.51 78 86.02 78 102 C71.11764706 104.29411765 71.11764706 104.29411765 67 103 C64.91795642 100.91795642 65.74178708 96.4661444 65.68359375 93.58984375 C65.66281265 92.74780899 65.64203156 91.90577423 65.62062073 91.03822327 C65.55503188 88.33806821 65.49619724 85.63781283 65.4375 82.9375 C65.39432363 81.11131759 65.35070964 79.28514546 65.30664062 77.45898438 C65.19934106 72.97276008 65.09810034 68.4864345 65 64 C58.55385649 64.3951973 53.31136959 65.31994585 47.375 67.875 C46.07053159 68.42499908 44.76584659 68.97448478 43.4609375 69.5234375 C42.31882812 70.01070313 41.17671875 70.49796875 40 71 C38.67115746 71.51181568 37.33877776 72.01476614 36 72.5 C32.46934022 73.80155678 28.98786107 75.21287926 25.5 76.625 C22.67016984 77.75893509 19.83595524 78.88147631 17 80 C16.02111816 80.38623535 15.04223633 80.7724707 14.03369141 81.17041016 C10.79816431 82.43906048 7.55624187 83.69001903 4.3125 84.9375 C3.260625 85.3514502 2.20875 85.76540039 1.125 86.19189453 C0.13113281 86.57071777 -0.86273438 86.94954102 -1.88671875 87.33984375 C-3.22029419 87.85599243 -3.22029419 87.85599243 -4.58081055 88.38256836 C-7.91613858 89.2338192 -9.85801614 88.63006006 -12.8125 87 C-15.10904489 85.82096223 -15.10904489 85.82096223 -18.3125 85.5625 C-23.16632789 84.82208558 -27.13942332 82.86221846 -31.5625 80.8125 C-34.47229719 79.8425676 -36.95037914 79.94561719 -40 80 C-40.00410889 80.59014893 -40.00821777 81.18029785 -40.01245117 81.78833008 C-40.04536148 84.46407016 -40.11599621 87.13752475 -40.1875 89.8125 C-40.19620117 91.2056543 -40.19620117 91.2056543 -40.20507812 92.62695312 C-40.28797457 95.17832144 -40.4204817 97.51316284 -41 100 C-43.8629935 102.5885247 -45.1621225 103 -49 103 C-49 92.77 -49 82.54 -49 72 C-39.13622291 67.61609907 -39.13622291 67.61609907 -35.0625 66.0625 C-31.52097773 64.6690239 -28.13855449 63.10737943 -24.75 61.375 C-19.93107456 58.91266506 -15.25112209 57.31278052 -10 56 C-10.33 50.39 -10.66 44.78 -11 39 C-11.99 39.495 -11.99 39.495 -13 40 C-13 37.03 -13 34.06 -13 31 C-13.72703125 31.38671875 -14.4540625 31.7734375 -15.203125 32.171875 C-21.57617748 35.47278936 -27.83730184 38.12897605 -34.69921875 40.23828125 C-36.93813495 40.78845623 -36.93813495 40.78845623 -38 42 C-43.82597058 42.47558944 -47.72808443 41.21975392 -53 39 C-53 43.62 -53 48.24 -53 53 C-55.64424666 54.10809418 -58.29028946 55.21152624 -60.9375 56.3125 C-61.67291016 56.62123047 -62.40832031 56.92996094 -63.16601562 57.24804688 C-68.3732796 59.40826556 -73.62963977 61.28615668 -79 63 C-78.99476318 63.81267334 -78.98952637 64.62534668 -78.98413086 65.46264648 C-78.96343006 69.12092322 -78.95036197 72.77918767 -78.9375 76.4375 C-78.92912109 77.71689453 -78.92074219 78.99628906 -78.91210938 80.31445312 C-78.90888672 81.52939453 -78.90566406 82.74433594 -78.90234375 83.99609375 C-78.89710693 85.12200928 -78.89187012 86.2479248 -78.88647461 87.40795898 C-79 90 -79 90 -80 91 C-81.9609375 90.984375 -81.9609375 90.984375 -84.375 90.75 C-85.56222656 90.64945313 -85.56222656 90.64945313 -86.7734375 90.546875 C-89.53565915 89.8684346 -90.32505215 89.30057008 -92 87 C-92.34057617 83.90551758 -92.34057617 83.90551758 -92.29296875 80.14453125 C-92.28872391 79.48289474 -92.28447906 78.82125824 -92.28010559 78.13957214 C-92.26333693 76.0301309 -92.22569099 73.92165154 -92.1875 71.8125 C-92.17245068 70.38087319 -92.1587627 68.94923138 -92.14648438 67.51757812 C-92.1134403 64.01140712 -92.06167167 60.50579746 -92 57 C-92.78729492 57.02698975 -93.57458984 57.05397949 -94.38574219 57.08178711 C-97.65689579 56.979449 -98.4479011 55.98751587 -101 54 C-103.5769027 52.9039797 -106.12280428 51.892178 -108.75 50.9375 C-109.42804688 50.68162109 -110.10609375 50.42574219 -110.8046875 50.16210938 C-115.47789029 48.43409047 -120.14920244 47.1365658 -125 46 C-124.73374939 44.11599731 -124.73374939 44.11599731 -124 42 C-122.3842926 40.94088745 -122.3842926 40.94088745 -120.26000977 40.14404297 C-119.46203979 39.83586639 -118.66406982 39.52768982 -117.84191895 39.21017456 C-116.96724976 38.89073883 -116.09258057 38.5713031 -115.19140625 38.2421875 C-114.28733032 37.89785675 -113.38325439 37.553526 -112.45178223 37.19876099 C-109.4940317 36.07607959 -106.5285259 34.9756107 -103.5625 33.875 C-101.51366631 33.10178291 -99.46540881 32.32703737 -97.41772461 31.55078125 C-93.3932682 30.02724348 -89.36605965 28.51141502 -85.3359375 27.00292969 C-80.17348176 25.06892364 -75.02821525 23.09507614 -69.89013672 21.09716797 C-66.99642836 19.97436315 -64.09636911 18.86929294 -61.1953125 17.765625 C-56.03660901 15.79731465 -50.90044875 13.7763914 -45.76753235 11.74182129 C-41.68914148 10.13094442 -37.60286275 8.54069299 -33.51535034 6.953125 C-31.48020663 6.15759175 -29.44831543 5.35368191 -27.41995239 4.54101562 C-24.55768411 3.39564685 -21.68507302 2.28098204 -18.80859375 1.171875 C-17.95333099 0.82147156 -17.09806824 0.47106812 -16.21688843 0.11004639 C-10.16109549 -2.17653531 -6.10516875 -2.06920534 0 0 Z " fill="#E4A1D2" transform="translate(227,85)"/>
<path d="M0 0 C0.495 3.96 0.495 3.96 1 8 C1.66 6.68 2.32 5.36 3 4 C3.14505175 7.43705705 3.23398014 10.87333033 3.3125 14.3125 C3.3753418 15.77719727 3.3753418 15.77719727 3.43945312 17.27148438 C3.48520512 19.93425035 3.47604002 22.37888777 3 25 C0.65234375 27.109375 0.65234375 27.109375 -2 28 C-3.36125 28.4640625 -3.36125 28.4640625 -4.75 28.9375 C-5.8225 29.288125 -6.895 29.63875 -8 30 C-10.20430359 30.94530711 -12.38548583 31.93635638 -14.5703125 32.92578125 C-17.88896445 34.39303091 -21.25737148 35.72058409 -24.6328125 37.05078125 C-26.77578436 37.91009175 -28.8884145 38.81687197 -31 39.75 C-34 41 -34 41 -36 41 C-36 51.23 -36 61.46 -36 72 C-34.02 71.01 -32.04 70.02 -30 69 C-29.34 69 -28.68 69 -28 69 C-28.00523682 68.39937744 -28.01047363 67.79875488 -28.01586914 67.17993164 C-28.03658014 64.47413162 -28.04964125 61.76834823 -28.0625 59.0625 C-28.07087891 58.11697266 -28.07925781 57.17144531 -28.08789062 56.19726562 C-28.09111328 55.29814453 -28.09433594 54.39902344 -28.09765625 53.47265625 C-28.10289307 52.64000244 -28.10812988 51.80734863 -28.11352539 50.94946289 C-28 49 -28 49 -27 48 C-20.92264278 47.20034773 -15.49969789 49.66707875 -10 52 C-9.67 52.33 -9.34 52.66 -9 53 C-6.8171267 53.49610757 -4.62311502 53.89841837 -2.421875 54.3046875 C0.61615026 55.17689475 2.52570283 55.98991959 5 58 C5.48926179 60.76488473 5.63503442 62.91971368 5.56762695 65.68432617 C5.56872215 66.85541176 5.56872215 66.85541176 5.56983948 68.05015564 C5.56635479 70.63179918 5.5274548 73.21164032 5.48828125 75.79296875 C5.47895619 77.58229079 5.47183863 79.3716256 5.46684265 81.16096497 C5.44774853 85.87131983 5.39862726 90.58090423 5.34332275 95.29095459 C5.29218211 100.09685848 5.26933972 104.90288683 5.24414062 109.70898438 C5.1905106 119.13966151 5.10516882 128.5697667 5 138 C-1.68618137 136.22932077 -8.29159763 134.33249565 -14.84375 132.1171875 C-15.62012817 131.85745148 -16.39650635 131.59771545 -17.19641113 131.33010864 C-19.63191169 130.51460097 -22.06597427 129.69489764 -24.5 128.875 C-26.15875963 128.31872844 -27.81761316 127.76273681 -29.4765625 127.20703125 C-32.49472243 126.19556974 -35.51236568 125.18260108 -38.52929688 124.16748047 C-40.68527852 123.44224804 -42.84203868 122.71932044 -45 122 C-45.99560547 119.60180664 -45.99560547 119.60180664 -46.8671875 116.41015625 C-47.35541992 114.65638672 -47.35541992 114.65638672 -47.85351562 112.8671875 C-48.19060547 111.61164063 -48.52769531 110.35609375 -48.875 109.0625 C-49.23013672 107.79535156 -49.58527344 106.52820313 -49.95117188 105.22265625 C-51.52080756 99.59598405 -53.03549364 93.96898113 -54.3515625 88.27734375 C-54.55023926 87.4567749 -54.74891602 86.63620605 -54.95361328 85.79077148 C-55.30650954 84.31122475 -55.63245582 82.82487069 -55.92529297 81.33227539 C-56.59270321 78.57285589 -57.33394579 76.5002078 -59.64526367 74.7644043 C-61.72623536 73.68399298 -63.80397673 72.82042306 -66 72 C-66.69367676 71.72043457 -67.38735352 71.44086914 -68.10205078 71.15283203 C-70.16091173 70.33791674 -72.23154673 69.56903164 -74.3125 68.8125 C-75.01439453 68.55275391 -75.71628906 68.29300781 -76.43945312 68.02539062 C-79.2810627 66.97705611 -82.12648907 65.95783698 -85 65 C-84.814375 66.27875 -84.62875 67.5575 -84.4375 68.875 C-83.84770546 74.02751066 -84.30519936 78.87985373 -85 84 C-85.804375 84.309375 -86.60875 84.61875 -87.4375 84.9375 C-89.89080405 85.76335345 -89.89080405 85.76335345 -91 87 C-92.98 87 -94.96 87 -97 87 C-97 76.11 -97 65.22 -97 54 C-95.35 54 -93.7 54 -92 54 C-92 53.34 -92 52.68 -92 52 C-93.01320313 52.21140625 -94.02640625 52.4228125 -95.0703125 52.640625 C-99.45487273 53.0415987 -101.81090711 52.35351964 -105.875 50.75 C-107.08542969 50.2859375 -108.29585937 49.821875 -109.54296875 49.34375 C-111.25419922 48.67859375 -111.25419922 48.67859375 -113 48 C-114.72465712 47.40346588 -116.45314165 46.81771141 -118.1875 46.25 C-119.19876953 45.91742188 -119.19876953 45.91742188 -120.23046875 45.578125 C-121.10638672 45.29195312 -121.10638672 45.29195312 -122 45 C-122.99 44.67 -123.98 44.34 -125 44 C-119.375 40.125 -119.375 40.125 -116 39 C-115.97494385 38.25314941 -115.9498877 37.50629883 -115.92407227 36.73681641 C-115.80831787 33.36602733 -115.68549872 29.99553217 -115.5625 26.625 C-115.52318359 25.449375 -115.48386719 24.27375 -115.44335938 23.0625 C-115.40146484 21.94101563 -115.35957031 20.81953125 -115.31640625 19.6640625 C-115.27974854 18.62717285 -115.24309082 17.5902832 -115.20532227 16.52197266 C-115 14 -115 14 -114 12 C-113.34 12 -112.68 12 -112 12 C-112 12.99 -112 13.98 -112 15 C-110.85015625 15.10570312 -109.7003125 15.21140625 -108.515625 15.3203125 C-103.98209741 15.88949988 -99.99146994 17.22195563 -95.75 18.875 C-94.70972656 19.25978516 -94.70972656 19.25978516 -93.6484375 19.65234375 C-90.79890236 20.73866078 -88.27452569 21.79361198 -85.828125 23.6328125 C-83.692514 25.43435465 -83.692514 25.43435465 -79 26 C-78.67 36.56 -78.34 47.12 -78 58 C-74.37 58.33 -70.74 58.66 -67 59 C-66.67 50.09 -66.34 41.18 -66 32 C-62.82375 30.535625 -59.6475 29.07125 -56.375 27.5625 C-55.3854834 27.10174072 -54.3959668 26.64098145 -53.37646484 26.16625977 C-52.57934082 25.80330811 -51.7822168 25.44035645 -50.9609375 25.06640625 C-50.15446777 24.69459229 -49.34799805 24.32277832 -48.51708984 23.93969727 C-46 23 -46 23 -40 22 C-40 17.38 -40 12.76 -40 8 C-33.125 8.875 -33.125 8.875 -32 10 C-26.62717751 10.55966901 -23.22970117 9.47756974 -18.40625 7.1484375 C-15.09150238 5.56639886 -11.68244574 4.26272443 -8.26171875 2.9296875 C-5.98632429 2.03215087 -5.98632429 2.03215087 -3.83203125 0.8828125 C-2 0 -2 0 0 0 Z " fill="#BC7CBD" transform="translate(214,116)"/>
<path d="M0 0 C4.9362556 0.73645749 9.38218588 2.56085874 14 4.375 C14.7940625 4.67921875 15.588125 4.9834375 16.40625 5.296875 C18.62147525 6.16081285 20.80883202 7.07723452 23 8 C23.9384375 8.34289062 24.876875 8.68578125 25.84375 9.0390625 C29.58924354 12.44529032 30.25408999 17.21743221 31.5 22 C31.94001343 23.60041138 31.94001343 23.60041138 32.38891602 25.2331543 C33.27761599 28.48413548 34.13964715 31.74141979 35 35 C35.51796099 36.90277189 36.03739532 38.80514359 36.55859375 40.70703125 C40 53.40430761 40 53.40430761 40 57 C40.81984375 57.11029541 41.6396875 57.22059082 42.484375 57.33422852 C46.55718859 58.10551759 50.33251944 59.31910716 54.25 60.65234375 C55.02633789 60.91253799 55.80267578 61.17273224 56.60253906 61.44081116 C59.0698094 62.26879948 61.53491637 63.10302676 64 63.9375 C65.65610966 64.49455801 67.31235842 65.0512027 68.96875 65.60742188 C72.01649507 66.63147479 75.0634139 67.65790919 78.109375 68.68725586 C78.77775391 68.90872284 79.44613281 69.13018982 80.13476562 69.35836792 C81.80161506 69.93175649 83.44246296 70.57947929 85.078125 71.23657227 C91.0677483 72.80154152 96.3819536 70.68279887 102 68.56640625 C102.639375 68.32840805 103.27875 68.09040985 103.9375 67.84519958 C105.96087637 67.09089478 107.98056395 66.32728403 110 65.5625 C112.01997067 64.80283431 114.04068409 64.04525322 116.0625 63.29051208 C117.89737248 62.60476144 119.73000651 61.91303003 121.5625 61.22094727 C127.16139324 59.23230628 132.02187033 57.70838392 138 58 C138.36790276 64.37698123 138.36790276 64.37698123 136.74755859 67.1209259 C134.81713226 69.19662976 133.50806229 69.88930409 130.8515625 70.81518555 C130.02060059 71.11196701 129.18963867 71.40874847 128.33349609 71.71452332 C127.43969238 72.01884781 126.54588867 72.3231723 125.625 72.63671875 C124.70412598 72.96162796 123.78325195 73.28653717 122.83447266 73.62129211 C119.89378257 74.65563849 116.94714661 75.67171488 114 76.6875 C112.01520827 77.38227421 110.03082778 78.07822438 108.046875 78.77539062 C96.00447723 82.99850759 96.00447723 82.99850759 90 85 C90 102.82 90 120.64 90 139 C84.80679191 138.13446532 80.60536921 136.94798661 75.75 135.125 C75.03070313 134.86847656 74.31140625 134.61195313 73.5703125 134.34765625 C69.89054861 132.97635847 68.23229917 132.34844876 66 129 C64.01751285 128.28293018 62.01584651 127.61709587 60 127 C59.01 126.34 58.02 125.68 57 125 C57 124.34 57 123.68 57 123 C57.66 123 58.32 123 59 123 C58.67 122.01 58.34 121.02 58 120 C57.01 120.99 56.02 121.98 55 123 C55 122.34 55 121.68 55 121 C53.5459375 120.5359375 53.5459375 120.5359375 52.0625 120.0625 C49 119 49 119 48 118 C47.89908525 115.41810554 47.86028501 112.863535 47.8671875 110.28125 C47.86623077 109.50817505 47.86527405 108.7351001 47.86428833 107.93859863 C47.86360659 106.30102456 47.86546043 104.66344781 47.86962891 103.02587891 C47.87497729 100.51068079 47.86968374 97.99566127 47.86328125 95.48046875 C47.86394203 93.89322877 47.8652232 92.3059889 47.8671875 90.71875 C47.86516327 89.96146606 47.86313904 89.20418213 47.86105347 88.4239502 C47.88504868 83.11495132 47.88504868 83.11495132 49 82 C55.52542373 81.76271186 55.52542373 81.76271186 58 83 C58.495 81.515 58.495 81.515 59 80 C60.29355827 78.62804426 61.62298702 77.28817344 63 76 C62.07662842 75.71801758 61.15325684 75.43603516 60.2019043 75.14550781 C56.7702071 74.09348232 53.34444902 73.02315496 49.92016602 71.94726562 C48.43864516 71.48458399 46.95556969 71.02684953 45.47094727 70.57421875 C43.3343985 69.92188113 41.20411382 69.25182459 39.07421875 68.578125 C38.0803138 68.28098602 38.0803138 68.28098602 37.06632996 67.97784424 C33.18224455 66.72634729 30.94770563 65.64644367 29 62 C28.35083008 59.93945312 28.35083008 59.93945312 27.95703125 57.78125 C27.0654022 53.28545613 25.9311125 48.90993821 24.6875 44.5 C24.47456299 43.73606934 24.26162598 42.97213867 24.04223633 42.18505859 C22.91877621 38.17710538 21.76230874 34.18109016 20.5625 30.1953125 C20.21699097 29.04385742 20.21699097 29.04385742 19.86450195 27.86914062 C19.42290574 26.40532801 18.97635601 24.9429979 18.52416992 23.48242188 C17.50917538 20.12390591 17 17.55003953 17 14 C14.03 13.67 11.06 13.34 8 13 C8 12.34 8 11.68 8 11 C7.236875 10.896875 6.47375 10.79375 5.6875 10.6875 C2.70259478 9.92391959 1.64325574 9.59461433 0 7 C-0.1875 3.3125 -0.1875 3.3125 0 0 Z " fill="#BD7DBE" transform="translate(129,181)"/>
<path d="M0 0 C4.83633701 1.67650073 9.60611022 3.51718097 14.375 5.375 C16.26329476 6.10410507 18.15227352 6.8314041 20.04156494 7.55792236 C21.86995683 8.26246295 23.69622856 8.97249773 25.52246094 9.68261719 C29.6481567 11.24553872 33.81547139 12.66388077 38.01025391 14.02978516 C38.66687012 14.34995605 39.32348633 14.67012695 40 15 C40.495 16.485 40.495 16.485 41 18 C40.11699219 18.30292969 39.23398437 18.60585937 38.32421875 18.91796875 C31.75473271 21.21129095 25.38891904 23.63544421 19.0859375 26.59765625 C12.47865339 29.60020688 5.71836452 32.25890728 -1 35 C-1.33 44.57 -1.66 54.14 -2 64 C-11.2342872 68.40138922 -20.4141062 72.41764278 -30 76 C-33.33997594 77.31705237 -36.67011168 78.65771287 -40 80 C-40.00616333 80.88522339 -40.00616333 80.88522339 -40.01245117 81.78833008 C-40.04536148 84.46407016 -40.11599621 87.13752475 -40.1875 89.8125 C-40.19330078 90.74126953 -40.19910156 91.67003906 -40.20507812 92.62695312 C-40.28797457 95.17832144 -40.4204817 97.51316284 -41 100 C-43.8629935 102.5885247 -45.1621225 103 -49 103 C-49 92.77 -49 82.54 -49 72 C-39.13622291 67.61609907 -39.13622291 67.61609907 -35.0625 66.0625 C-31.52097773 64.6690239 -28.13855449 63.10737943 -24.75 61.375 C-19.93107456 58.91266506 -15.25112209 57.31278052 -10 56 C-10.33 50.39 -10.66 44.78 -11 39 C-11.99 39.495 -11.99 39.495 -13 40 C-13 37.03 -13 34.06 -13 31 C-13.99 31.33 -14.98 31.66 -16 32 C-16 31.34 -16 30.68 -16 30 C-16.763125 29.87625 -17.52625 29.7525 -18.3125 29.625 C-19.529375 29.41875 -20.74625 29.2125 -22 29 C-22.78890625 28.90074219 -23.5778125 28.80148438 -24.390625 28.69921875 C-32.33640872 27.54917111 -38.84166898 24.52742987 -46 21 C-48.32133905 19.96702318 -50.65621323 18.98112005 -53 18 C-52.74034119 16.1134491 -52.74034119 16.1134491 -52 14 C-50.33668518 12.95625305 -50.33668518 12.95625305 -48.15454102 12.18481445 C-47.3402211 11.88803299 -46.52590118 11.59125153 -45.68690491 11.28547668 C-44.80151535 10.98115219 -43.91612579 10.6768277 -43.00390625 10.36328125 C-42.1000267 10.03837204 -41.19614716 9.71346283 -40.26487732 9.37870789 C-37.36922951 8.34147932 -34.46629872 7.32665824 -31.5625 6.3125 C-29.60819127 5.6180337 -27.65440747 4.92208824 -25.70117188 4.22460938 C-22.95329016 3.24359446 -20.20479595 2.2649474 -17.45204163 1.29768372 C-16.63456955 1.01035873 -15.81709747 0.72303375 -14.97485352 0.42700195 C-14.25395035 0.174814 -13.53304718 -0.07737396 -12.79029846 -0.33720398 C-7.97265329 -2.12077031 -4.97066798 -1.43170327 0 0 Z " fill="#E7A5D4" transform="translate(227,85)"/>
<path d="M0 0 C5.36770927 2.25215297 10.8375229 4.24966175 16.28723145 6.29342651 C19.53392931 7.5134256 22.77551599 8.74673941 26.01757812 9.97900391 C27.13068359 10.40165527 28.24378906 10.82430664 29.390625 11.25976562 C30.18533203 11.56156738 30.98003906 11.86336914 31.79882812 12.17431641 C31.79882812 12.83431641 31.79882812 13.49431641 31.79882812 14.17431641 C4.8091374 25.17431641 4.8091374 25.17431641 -0.20117188 25.17431641 C-0.20117188 40.68431641 -0.20117188 56.19431641 -0.20117188 72.17431641 C-7.08352482 74.46843405 -7.08352482 74.46843405 -11.20117188 73.17431641 C-13.28321546 71.09227282 -12.45938479 66.6404608 -12.51757812 63.76416016 C-12.53835922 62.9221254 -12.55914032 62.08009064 -12.58055115 61.21253967 C-12.64614 58.51238462 -12.70497463 55.81212923 -12.76367188 53.11181641 C-12.80684824 51.28563399 -12.85046223 49.45946187 -12.89453125 47.63330078 C-13.00183082 43.14707649 -13.10307154 38.66075091 -13.20117188 34.17431641 C-15.73205798 33.06280411 -18.26336701 31.95227246 -20.79492188 30.84228516 C-21.50358398 30.53093628 -22.21224609 30.2195874 -22.94238281 29.89880371 C-27.17535058 28.04383939 -31.42364718 26.23746497 -35.70117188 24.48681641 C-40.32063904 22.58097067 -44.76677468 20.47679187 -49.20117188 18.17431641 C-49.57617188 15.92431641 -49.57617188 15.92431641 -49.20117188 13.17431641 C-46.57870372 11.03974931 -44.12714395 9.53721935 -40.97851562 8.30322266 C-38.07707975 7.12387671 -35.32170547 5.77222359 -32.53125 4.35449219 C-31.11806906 3.637618 -29.6998635 2.93058127 -28.27734375 2.23242188 C-25.31938311 0.77958853 -22.47791107 -0.6446718 -19.71679688 -2.45068359 C-12.82544469 -6.72439037 -6.74831726 -2.9367677 0 0 Z " fill="#E3A0D2" transform="translate(305.201171875,114.82568359375)"/>
<path d="M0 0 C0.495 3.96 0.495 3.96 1 8 C1.66 6.68 2.32 5.36 3 4 C3.14505175 7.43705705 3.23398014 10.87333033 3.3125 14.3125 C3.35439453 15.28896484 3.39628906 16.26542969 3.43945312 17.27148438 C3.48520512 19.93425035 3.47604002 22.37888777 3 25 C0.65234375 27.109375 0.65234375 27.109375 -2 28 C-3.36125 28.4640625 -3.36125 28.4640625 -4.75 28.9375 C-5.8225 29.288125 -6.895 29.63875 -8 30 C-10.20430359 30.94530711 -12.38548583 31.93635638 -14.5703125 32.92578125 C-17.88896445 34.39303091 -21.25737148 35.72058409 -24.6328125 37.05078125 C-26.77578436 37.91009175 -28.8884145 38.81687197 -31 39.75 C-34 41 -34 41 -36 41 C-36 51.23 -36 61.46 -36 72 C-34.02 71.01 -32.04 70.02 -30 69 C-29.34 69 -28.68 69 -28 69 C-28 62.4 -28 55.8 -28 49 C-27.01 49 -26.02 49 -25 49 C-25.495 49.99 -25.495 49.99 -26 51 C-26.15004973 52.3734635 -26.24838006 53.7528526 -26.31640625 55.1328125 C-26.37924805 56.34130859 -26.37924805 56.34130859 -26.44335938 57.57421875 C-26.48267578 58.41597656 -26.52199219 59.25773437 -26.5625 60.125 C-26.62727539 61.39923828 -26.62727539 61.39923828 -26.69335938 62.69921875 C-26.79954236 64.79928223 -26.90028497 66.89961948 -27 69 C-26.35675781 69.10183594 -25.71351563 69.20367187 -25.05078125 69.30859375 C-20.97027923 70.23336822 -17.11850085 71.64233121 -13.1875 73.0625 C-12.39923828 73.34416016 -11.61097656 73.62582031 -10.79882812 73.91601562 C-8.86477711 74.60758538 -6.93223512 75.30337278 -5 76 C-7.22761948 78.28409434 -8.93719065 79.94989394 -12 81 C-17.19918879 80.46674987 -21.87318133 78.77338861 -26.75 77 C-27.51699219 76.72671875 -28.28398437 76.4534375 -29.07421875 76.171875 C-34.66537267 74.16731366 -34.66537267 74.16731366 -37 73 C-37 62.77 -37 52.54 -37 42 C-39.31 41.34 -41.62 40.68 -44 40 C-45.32016515 39.54237469 -46.63457902 39.06713241 -47.9375 38.5625 C-48.60394531 38.30855469 -49.27039063 38.05460937 -49.95703125 37.79296875 C-51.33158818 37.25944092 -52.70396647 36.72026944 -54.07421875 36.17578125 C-58.04763046 34.62425858 -61.73457611 33.53317799 -66 33 C-62.39402997 29.95454344 -58.41432675 28.23239654 -54.125 26.375 C-53.43019531 26.06304687 -52.73539063 25.75109375 -52.01953125 25.4296875 C-51.33503906 25.130625 -50.65054688 24.8315625 -49.9453125 24.5234375 C-49.33187988 24.25450684 -48.71844727 23.98557617 -48.08642578 23.70849609 C-46 23 -46 23 -40 22 C-40 17.38 -40 12.76 -40 8 C-33.125 8.875 -33.125 8.875 -32 10 C-26.62717751 10.55966901 -23.22970117 9.47756974 -18.40625 7.1484375 C-15.09150238 5.56639886 -11.68244574 4.26272443 -8.26171875 2.9296875 C-5.98632429 2.03215087 -5.98632429 2.03215087 -3.83203125 0.8828125 C-2 0 -2 0 0 0 Z " fill="#E29FD2" transform="translate(214,116)"/>
<path d="M0 0 C9.87096774 3.03225806 9.87096774 3.03225806 14 6 C15.47905238 8.95810476 15.12190903 11.9547155 15.09765625 15.1953125 C15.0962413 15.90275604 15.09482635 16.61019958 15.09336853 17.33908081 C15.087766 19.60109669 15.07521318 21.86301398 15.0625 24.125 C15.05748532 25.65755065 15.05292236 27.19010286 15.04882812 28.72265625 C15.03779577 32.48180888 15.02052952 36.24088772 15 40 C13.43419294 40.8160718 11.86438544 41.62447043 10.29296875 42.4296875 C8.98235474 43.10620361 8.98235474 43.10620361 7.64526367 43.79638672 C4.49012827 45.23199517 1.47777367 45.914433 -1.9140625 46.52734375 C-4.31859522 46.99258898 -4.31859522 46.99258898 -7.5625 48.6875 C-13.92747687 51.1177639 -18.66350481 49.11216506 -25 47 C-25 35.12 -25 23.24 -25 11 C-18.07 8.525 -18.07 8.525 -11 6 C-9.453125 5.401875 -7.90625 4.80375 -6.3125 4.1875 C-3 3 -3 3 0 3 C0 2.01 0 1.02 0 0 Z " fill="#A365AF" transform="translate(339,136)"/>
<path d="M0 0 C0 2.97 0 5.94 0 9 C-0.78125244 9.25692627 -1.56250488 9.51385254 -2.36743164 9.77856445 C-5.29615459 10.74336879 -8.22393339 11.71097453 -11.15112305 12.68041992 C-13.02908137 13.30144867 -14.90808684 13.91930805 -16.78710938 14.53710938 C-24.07674612 16.92387061 -24.07674612 16.92387061 -31.18359375 19.79296875 C-34 21 -34 21 -37 21 C-37.19335938 22.04994141 -37.19335938 22.04994141 -37.390625 23.12109375 C-39.23003935 31.81114743 -42.31280059 40.07157606 -45.84375 48.19921875 C-47.19008219 51.46043558 -48.20981256 54.7563403 -49.12890625 58.16015625 C-50.88345228 61.86594629 -53.95053461 62.98095685 -57.66357422 64.41040039 C-59.12473402 64.89719129 -60.58862711 65.37582969 -62.0546875 65.84765625 C-63.22343918 66.23370277 -63.22343918 66.23370277 -64.415802 66.62754822 C-66.89993484 67.44629625 -69.38733639 68.25455117 -71.875 69.0625 C-73.54059283 69.60933132 -75.20596006 70.15685028 -76.87109375 70.70507812 C-80.61341889 71.93595412 -84.35753027 73.16111828 -88.10491943 74.37649536 C-89.85637906 74.95274696 -91.5988505 75.55612699 -93.34033203 76.16186523 C-96.05073516 77.01598805 -98.17791373 77.16600507 -101 77 C-102.78628454 73.20414534 -103.63812789 70.19341188 -103 66 C-98.98594459 63.00836045 -94.41038142 61.61998753 -89.70703125 60.08203125 C-88.91979172 59.81992355 -88.13255219 59.55781586 -87.32145691 59.2877655 C-85.66585082 58.73790264 -84.00927842 58.19094169 -82.35180664 57.64672852 C-79.80835601 56.81113859 -77.26827057 55.96588909 -74.72851562 55.11914062 C-73.11737572 54.58536905 -71.50605378 54.05214653 -69.89453125 53.51953125 C-69.13308304 53.26645706 -68.37163483 53.01338287 -67.58711243 52.75263977 C-62.23220062 51 -62.23220062 51 -60 51 C-59.87794189 50.15832275 -59.75588379 49.31664551 -59.63012695 48.44946289 C-58.57448187 42.67061386 -56.73175365 37.1423446 -54.8840332 31.57739258 C-54.42099902 30.15485679 -53.97616102 28.72626461 -53.55004883 27.29223633 C-50.04211173 15.52842264 -50.04211173 15.52842264 -45.4765625 12.11132812 C-42.35358407 10.77681177 -39.28136769 9.87301583 -36 9 C-34.13445227 8.33831876 -32.26902505 7.6760496 -30.41111755 6.99320984 C-27.82370864 6.05143406 -25.21665369 5.17308966 -22.60693359 4.29541016 C-20.60186244 3.61717347 -18.603974 2.91996767 -16.60546875 2.22265625 C-15.31289756 1.78528165 -14.01994196 1.3490411 -12.7265625 0.9140625 C-11.57752441 0.5217041 -10.42848633 0.1293457 -9.24462891 -0.27490234 C-5.76800033 -1.05184643 -3.43751366 -0.82570601 0 0 Z " fill="#FBF3FB" transform="translate(334,214)"/>
<path d="M0 0 C4.9362556 0.73645749 9.38218588 2.56085874 14 4.375 C14.7940625 4.67921875 15.588125 4.9834375 16.40625 5.296875 C18.62147525 6.16081285 20.80883202 7.07723452 23 8 C23.9384375 8.34289062 24.876875 8.68578125 25.84375 9.0390625 C29.58924354 12.44529032 30.25408999 17.21743221 31.5 22 C31.94001343 23.60041138 31.94001343 23.60041138 32.38891602 25.2331543 C33.27761599 28.48413548 34.13964715 31.74141979 35 35 C35.51796099 36.90277189 36.03739532 38.80514359 36.55859375 40.70703125 C40 53.40430761 40 53.40430761 40 57 C40.81984375 57.11029541 41.6396875 57.22059082 42.484375 57.33422852 C46.55718859 58.10551759 50.33251944 59.31910716 54.25 60.65234375 C55.02633789 60.91253799 55.80267578 61.17273224 56.60253906 61.44081116 C59.0698094 62.26879948 61.53491637 63.10302676 64 63.9375 C65.65610966 64.49455801 67.31235842 65.0512027 68.96875 65.60742188 C72.01649507 66.63147479 75.0634139 67.65790919 78.109375 68.68725586 C78.77775391 68.90872284 79.44613281 69.13018982 80.13476562 69.35836792 C81.80161506 69.93175649 83.44246296 70.57947929 85.078125 71.23657227 C91.0677483 72.80154152 96.3819536 70.68279887 102 68.56640625 C102.639375 68.32840805 103.27875 68.09040985 103.9375 67.84519958 C105.96087637 67.09089478 107.98056395 66.32728403 110 65.5625 C112.01997067 64.80283431 114.04068409 64.04525322 116.0625 63.29051208 C117.89737248 62.60476144 119.73000651 61.91303003 121.5625 61.22094727 C127.16139324 59.23230628 132.02187033 57.70838392 138 58 C138 59.65 138 61.3 138 63 C130.46829797 66.50179458 122.77076273 69.31116443 114.9375 72.0625 C112.4880854 72.92783125 110.03886149 73.79370248 107.58984375 74.66015625 C105.86677002 75.26174561 105.86677002 75.26174561 104.10888672 75.87548828 C101.56681228 76.794979 99.11018947 77.80457197 96.62890625 78.87109375 C89.72853852 81.01770976 83.83999945 78.85318008 77.1875 76.5 C75.62521142 75.96292626 74.06269544 75.42651374 72.5 74.890625 C71.64019531 74.59349609 70.78039062 74.29636719 69.89453125 73.99023438 C62.99116148 71.62855524 56.05453907 69.36395628 49.12768555 67.07226562 C48.0169165 66.70294922 46.90614746 66.33363281 45.76171875 65.953125 C44.77131592 65.62473633 43.78091309 65.29634766 42.76049805 64.95800781 C41.84953369 64.64186523 40.93856934 64.32572266 40 64 C39.08895508 63.70351562 38.17791016 63.40703125 37.23925781 63.1015625 C35 62 35 62 33.41015625 58.421875 C32.93953798 56.87091618 32.4918217 55.31289401 32.0625 53.75 C31.69572144 52.50343628 31.69572144 52.50343628 31.3215332 51.23168945 C30.52447023 48.49386315 29.76043399 45.74821034 29 43 C28.44013606 41.01952223 27.88023986 39.03905359 27.3203125 37.05859375 C22.85098335 21.05699914 22.85098335 21.05699914 22 15 C20.1746875 14.4121875 20.1746875 14.4121875 18.3125 13.8125 C12.12690026 11.75722085 6.06909639 9.37323244 0 7 C0 4.69 0 2.38 0 0 Z " fill="#FCF5FC" transform="translate(129,181)"/>
<path d="M0 0 C1.52387167 0.68020569 3.04206281 1.37326247 4.5546875 2.078125 C8.25831677 3.71207909 12.08450022 4.92802002 15.9453125 6.1328125 C13.89458854 7.1646233 11.84590519 8.17825584 9.7578125 9.1328125 C7.77329727 10.00425819 7.77329727 10.00425819 6.9453125 12.1328125 C6.79187041 14.01754109 6.69571679 15.90709124 6.62890625 17.796875 C6.56606445 19.47910156 6.56606445 19.47910156 6.50195312 21.1953125 C6.46263672 22.3709375 6.42332031 23.5465625 6.3828125 24.7578125 C6.31803711 26.53285156 6.31803711 26.53285156 6.25195312 28.34375 C6.14563824 31.27331578 6.04360608 34.20296838 5.9453125 37.1328125 C0.05374107 36.23265393 -5.0697207 34.33861654 -10.6171875 32.19140625 C-14.63410181 30.95437923 -18.18593632 30.19843691 -22.0546875 32.1328125 C-24.05428762 32.1728045 -26.05515992 32.17628049 -28.0546875 32.1328125 C-29.5333609 29.78433121 -30.06702226 28.43643742 -29.953125 25.6328125 C-29.0546875 23.1328125 -29.0546875 23.1328125 -26.62109375 21.76953125 C-25.62980469 21.45628906 -24.63851563 21.14304687 -23.6171875 20.8203125 C-22.13412109 20.33111328 -22.13412109 20.33111328 -20.62109375 19.83203125 C-18.0546875 19.1328125 -18.0546875 19.1328125 -16.0546875 19.1328125 C-16.0546875 13.5228125 -16.0546875 7.9128125 -16.0546875 2.1328125 C-9.93348887 -1.34993845 -6.77413947 -2.85904746 0 0 Z " fill="#B172B7" transform="translate(328.0546875,234.8671875)"/>
<path d="M0 0 C0.81726563 0.10183594 1.63453125 0.20367187 2.4765625 0.30859375 C3.10304688 0.39238281 3.72953125 0.47617188 4.375 0.5625 C4.87 2.0475 4.87 2.0475 5.375 3.5625 C4.49199219 3.86542969 3.60898437 4.16835937 2.69921875 4.48046875 C-3.87026729 6.77379095 -10.23608096 9.19794421 -16.5390625 12.16015625 C-23.14634661 15.16270688 -29.90663548 17.82140728 -36.625 20.5625 C-36.955 30.1325 -37.285 39.7025 -37.625 49.5625 C-46.8592872 53.96388922 -56.0391062 57.98014278 -65.625 61.5625 C-68.96497594 62.87955237 -72.29511168 64.22021287 -75.625 65.5625 C-75.63958252 66.15788574 -75.65416504 66.75327148 -75.66918945 67.36669922 C-75.74354344 70.05763051 -75.84024187 72.74730333 -75.9375 75.4375 C-75.96005859 76.37464844 -75.98261719 77.31179687 -76.00585938 78.27734375 C-76.04130859 79.17324219 -76.07675781 80.06914062 -76.11328125 80.9921875 C-76.13946533 81.81960449 -76.16564941 82.64702148 -76.19262695 83.49951172 C-76.625 85.5625 -76.625 85.5625 -79.625 87.5625 C-80.615 87.5625 -81.605 87.5625 -82.625 87.5625 C-82.74089162 83.29189382 -82.81214802 79.02169016 -82.875 74.75 C-82.92527344 72.92758789 -82.92527344 72.92758789 -82.9765625 71.06835938 C-82.98945313 69.90498047 -83.00234375 68.74160156 -83.015625 67.54296875 C-83.03657227 66.46942139 -83.05751953 65.39587402 -83.07910156 64.28979492 C-82.625 61.5625 -82.625 61.5625 -80.84472656 59.79174805 C-78.81879588 58.66982097 -76.88580688 57.72484801 -74.71875 56.9140625 C-73.98035889 56.63320801 -73.24196777 56.35235352 -72.48120117 56.06298828 C-71.70365479 55.77407715 -70.9261084 55.48516602 -70.125 55.1875 C-68.50602057 54.57420822 -66.88753153 53.95962035 -65.26953125 53.34375 C-64.47885254 53.04339844 -63.68817383 52.74304688 -62.87353516 52.43359375 C-58.90636605 50.89669262 -55.00515173 49.20724145 -51.10546875 47.5078125 C-48.6186378 46.56007535 -46.24496707 46.00464884 -43.625 45.5625 C-43.73328125 43.93054688 -43.73328125 43.93054688 -43.84375 42.265625 C-45.16186342 21.74004718 -45.16186342 21.74004718 -44.625 16.5625 C-42.05353943 13.99103943 -40.0199583 13.76132003 -36.5 12.9375 C-35.40429688 12.67710938 -34.30859375 12.41671875 -33.1796875 12.1484375 C-32.33664063 11.95507812 -31.49359375 11.76171875 -30.625 11.5625 C-30.625 10.9025 -30.625 10.2425 -30.625 9.5625 C-29.53445312 9.21638672 -29.53445312 9.21638672 -28.421875 8.86328125 C-0.7851294 -0.10094521 -0.7851294 -0.10094521 0 0 Z " fill="#FDF6FC" transform="translate(262.625,99.4375)"/>
<path d="M0 0 C-0.33 0.99 -0.66 1.98 -1 3 C-3.08203125 3.95703125 -3.08203125 3.95703125 -5.8125 4.8125 C-11.35339153 6.67638629 -16.39686743 9.11226845 -21.56640625 11.828125 C-24 13 -24 13 -26 13 C-26.38483922 16.34378592 -26.38483922 16.34378592 -25 20 C-21.55776849 22.21458251 -17.80843785 23.53560734 -14 25 C-12.53148177 25.7084309 -11.07153175 26.43519286 -9.625 27.1875 C-6.81180897 28.64366716 -3.95156433 29.84878848 -1 31 C-0.28548816 45.67789752 0.14630428 60.3045475 0 75 C-2.375 75.625 -2.375 75.625 -5 76 C-8.01484776 72.98515224 -7.35708856 69.54101289 -7.4140625 65.4921875 C-7.43342865 64.65156769 -7.4527948 63.81094788 -7.4727478 62.94485474 C-7.53261658 60.25500697 -7.57895771 57.56511657 -7.625 54.875 C-7.6631731 53.05336656 -7.70222444 51.2317513 -7.7421875 49.41015625 C-7.83832398 44.94025148 -7.92232769 40.47026221 -8 36 C-10.53088611 34.88848771 -13.06219514 33.77795605 -15.59375 32.66796875 C-16.30241211 32.35661987 -17.01107422 32.045271 -17.74121094 31.7244873 C-21.97417871 29.86952298 -26.22247531 28.06314856 -30.5 26.3125 C-35.11946716 24.40665426 -39.56560281 22.30247546 -44 20 C-44.375 17.75 -44.375 17.75 -44 15 C-41.37753185 12.8654329 -38.92597208 11.36290294 -35.77734375 10.12890625 C-32.16144434 8.65915248 -28.72787889 6.89213184 -25.25 5.125 C-23.81803733 4.4120992 -22.38574791 3.69985433 -20.953125 2.98828125 C-18.68501435 1.85796692 -16.4563367 0.70129234 -14.234375 -0.51953125 C-8.48675305 -3.52397 -5.77842492 -2.94174359 0 0 Z " fill="#FDF5FC" transform="translate(300,113)"/>
<path d="M0 0 C0 6.6 0 13.2 0 20 C-2.31 20.33 -4.62 20.66 -7 21 C-7 21.66 -7 22.32 -7 23 C-9.10251861 23.67184618 -11.20707763 24.33730968 -13.3125 25 C-15.07013672 25.556875 -15.07013672 25.556875 -16.86328125 26.125 C-20 27 -20 27 -23 27 C-23.33 27.99 -23.66 28.98 -24 30 C-30.93756924 30.59043142 -32.84083115 29.18185282 -40 26 C-39.67 19.4 -39.34 12.8 -39 6 C-32 7 -32 7 -31 8 C-24.68115597 8.65821292 -20.61626013 6.70311057 -15 4 C-13.25802021 3.23155586 -11.50787225 2.48135844 -9.75 1.75 C-8.56664062 1.24726562 -8.56664062 1.24726562 -7.359375 0.734375 C-5 0 -5 0 0 0 Z " fill="#A667B0" transform="translate(213,118)"/>
<path d="M0 0 C1.32 0.33 2.64 0.66 4 1 C4 3.97 4 6.94 4 10 C3.21874756 10.25692627 2.43749512 10.51385254 1.63256836 10.77856445 C-1.29615459 11.74336879 -4.22393339 12.71097453 -7.15112305 13.68041992 C-9.02908137 14.30144867 -10.90808684 14.91930805 -12.78710938 15.53710938 C-20.07674612 17.92387061 -20.07674612 17.92387061 -27.18359375 20.79296875 C-30 22 -30 22 -33 22 C-33.19335938 23.04994141 -33.19335938 23.04994141 -33.390625 24.12109375 C-35.23003935 32.81114743 -38.31280059 41.07157606 -41.84375 49.19921875 C-43.19008219 52.46043558 -44.20981256 55.7563403 -45.12890625 59.16015625 C-46.88345228 62.86594629 -49.95053461 63.98095685 -53.66357422 65.41040039 C-55.12473402 65.89719129 -56.58862711 66.37582969 -58.0546875 66.84765625 C-59.22343918 67.23370277 -59.22343918 67.23370277 -60.415802 67.62754822 C-62.89993484 68.44629625 -65.38733639 69.25455117 -67.875 70.0625 C-69.54059283 70.60933132 -71.20596006 71.15685028 -72.87109375 71.70507812 C-76.61341889 72.93595412 -80.35753027 74.16111828 -84.10491943 75.37649536 C-85.85637906 75.95274696 -87.5988505 76.55612699 -89.34033203 77.16186523 C-92.05073516 78.01598805 -94.17791373 78.16600507 -97 78 C-98.80230168 74.17010894 -99.19622241 71.21878192 -99 67 C-98.67 68.32 -98.34 69.64 -98 71 C-88.67829314 69.46791749 -80.0234561 66.44971707 -71.125 63.375 C-68.17159948 62.35501116 -65.21560528 61.34310799 -62.2578125 60.3359375 C-61.58799347 60.10160004 -60.91817444 59.86726257 -60.22805786 59.62582397 C-56.91487293 58.49819684 -54.55478773 58 -51 58 C-50.7525 56.72125 -50.505 55.4425 -50.25 54.125 C-49.28106389 49.75114051 -47.79966516 45.80017546 -46.07421875 41.67578125 C-44.54248117 37.86036219 -43.28960576 33.96607449 -42.02734375 30.0546875 C-41.68832031 29.04664063 -41.34929687 28.03859375 -41 27 C-40.83330811 26.32759277 -40.66661621 25.65518555 -40.49487305 24.96240234 C-38.97295057 19.65540341 -38.97295057 19.65540341 -36.36254883 17.89697266 C-34.24212878 17.05345271 -32.14801527 16.44164307 -29.9375 15.875 C-28.321299 15.40211891 -26.70542303 14.92812581 -25.08984375 14.453125 C-23.83856689 14.10217773 -23.83856689 14.10217773 -22.56201172 13.74414062 C-18.32679689 12.51401533 -14.17011843 11.05759026 -10 9.625 C-2.30905542 7 -2.30905542 7 0 7 C0 4.69 0 2.38 0 0 Z " fill="#EEAEDC" transform="translate(330,213)"/>
<path d="M0 0 C1.29357422 0.433125 1.29357422 0.433125 2.61328125 0.875 C4.77421585 1.59281911 6.93803249 2.30205826 9.10546875 3 C10.63107422 3.495 10.63107422 3.495 12.1875 4 C13.72470703 4.495 13.72470703 4.495 15.29296875 5 C18 6 18 6 21 8 C21.88793945 9.98925781 21.88793945 9.98925781 22.61328125 12.453125 C23.02694946 13.83238159 23.02694946 13.83238159 23.44897461 15.23950195 C23.73393799 16.23296631 24.01890137 17.22643066 24.3125 18.25 C24.6122876 19.26602295 24.9120752 20.2820459 25.22094727 21.32885742 C27.8939084 30.45660808 30.45261653 39.61903776 32.93359375 48.80078125 C33.14040771 49.56559814 33.34722168 50.33041504 33.56030273 51.1184082 C34 53 34 53 34 55 C35.06250977 55.19118408 35.06250977 55.19118408 36.14648438 55.38623047 C39.07432354 56.01598643 41.81869109 56.86426039 44.65625 57.8203125 C45.75163086 58.18785645 46.84701172 58.55540039 47.97558594 58.93408203 C49.13864258 59.32708496 50.30169922 59.72008789 51.5 60.125 C52.69657227 60.52444824 53.89314453 60.92389648 55.12597656 61.33544922 C60.83408667 63.2434674 66.53023851 65.17704381 72.203125 67.1875 C73.61561523 67.68032471 73.61561523 67.68032471 75.05664062 68.18310547 C76.80463504 68.79439648 78.54847711 69.4177442 80.28710938 70.05517578 C89.70817096 73.32477025 96.81356509 70.17575209 105.8125 66.8125 C108.03582989 65.99568321 110.2597944 65.18059184 112.484375 64.3671875 C114.12889648 63.76535645 114.12889648 63.76535645 115.80664062 63.15136719 C122.8216765 60.62209279 129.91001228 58.30899983 137 56 C135.54412323 60.6550812 135.54412323 60.6550812 133.19946289 62.14135742 C132.0662561 62.52578003 132.0662561 62.52578003 130.91015625 62.91796875 C130.01312988 63.23813965 129.11610352 63.55831055 128.19189453 63.88818359 C127.13856934 64.25508301 126.08524414 64.62198242 125 65 C123.06599154 65.73670662 121.13837405 66.48891656 119.21029663 67.24099731 C116.36234459 68.34487566 113.50219508 69.41499302 110.64086914 70.48364258 C109.1674201 71.03792064 107.69669859 71.5995022 106.22875977 72.16821289 C90.50948817 78.2493144 90.50948817 78.2493144 83 76 C82.14623779 75.76579346 81.29247559 75.53158691 80.4128418 75.2902832 C77.45816581 74.42684554 74.54425121 73.47634131 71.625 72.5 C70.55878418 72.14905273 69.49256836 71.79810547 68.39404297 71.43652344 C66.1196826 70.68687947 63.84643391 69.93385569 61.57421875 69.17773438 C57.88073729 67.96070196 54.17650104 66.78215693 50.46875 65.609375 C48.02065746 64.8234643 45.57273629 64.03701956 43.125 63.25 C41.37823975 62.70375977 41.37823975 62.70375977 39.59619141 62.14648438 C38.51515137 61.79392578 37.43411133 61.44136719 36.3203125 61.078125 C35.36398926 60.77293945 34.40766602 60.46775391 33.42236328 60.15332031 C30.60663447 58.81271329 29.55058574 57.6841195 28 55 C27.35083008 52.93945312 27.35083008 52.93945312 26.95703125 50.78125 C26.0654022 46.28545613 24.9311125 41.90993821 23.6875 37.5 C23.47456299 36.73606934 23.26162598 35.97213867 23.04223633 35.18505859 C21.91877621 31.17710538 20.76230874 27.18109016 19.5625 23.1953125 C19.21699097 22.04385742 19.21699097 22.04385742 18.86450195 20.86914062 C18.42290574 19.40532801 17.97635601 17.9429979 17.52416992 16.48242188 C16.50917538 13.12390591 16 10.55003953 16 7 C13.03 6.67 10.06 6.34 7 6 C7 5.34 7 4.68 7 4 C5.824375 3.7834375 5.824375 3.7834375 4.625 3.5625 C2 3 2 3 0 2 C0 1.34 0 0.68 0 0 Z " fill="#EEB1DA" transform="translate(130,188)"/>
<path d="M0 0 C1.41791408 0.45445964 2.83428046 0.91374944 4.25 1.375 C5.43335938 1.75785156 5.43335938 1.75785156 6.640625 2.1484375 C8.86627958 2.95173667 10.90931672 3.89711662 13 5 C13 5.66 13 6.32 13 7 C12.11957031 7.32613281 11.23914063 7.65226563 10.33203125 7.98828125 C8.58986328 8.64376953 8.58986328 8.64376953 6.8125 9.3125 C5.66394531 9.74175781 4.51539063 10.17101562 3.33203125 10.61328125 C0.33211201 11.86178222 -2.23012855 13.32349886 -5 15 C-6.58570941 15.61260316 -8.19038365 16.17907547 -9.8125 16.6875 C-10.60269531 16.93886719 -11.39289063 17.19023437 -12.20703125 17.44921875 C-12.79871094 17.63097656 -13.39039063 17.81273437 -14 18 C-13.67 18.99 -13.34 19.98 -13 21 C-12.9166196 23.13794525 -12.89266253 25.27842009 -12.90234375 27.41796875 C-12.90556641 28.67158203 -12.90878906 29.92519531 -12.91210938 31.21679688 C-12.92048828 32.52712891 -12.92886719 33.83746094 -12.9375 35.1875 C-12.94251683 36.52278481 -12.94707941 37.85807141 -12.95117188 39.19335938 C-12.96297305 42.46228473 -12.97943703 45.73111991 -13 49 C-14.43791516 48.85831863 -15.8753237 48.71148957 -17.3125 48.5625 C-18.11300781 48.48128906 -18.91351563 48.40007812 -19.73828125 48.31640625 C-22 48 -22 48 -25 47 C-25 35.12 -25 23.24 -25 11 C-18.07 8.525 -18.07 8.525 -11 6 C-9.453125 5.401875 -7.90625 4.80375 -6.3125 4.1875 C-3 3 -3 3 0 3 C0 2.01 0 1.02 0 0 Z " fill="#B071B7" transform="translate(339,136)"/>
<path d="M0 0 C0 2.64 0 5.28 0 8 C-0.73863281 8.30292969 -1.47726563 8.60585937 -2.23828125 8.91796875 C-8.50133596 11.50436364 -14.68989239 14.19451453 -20.8203125 17.08203125 C-23 18 -23 18 -25 18 C-24.99476318 18.81267334 -24.98952637 19.62534668 -24.98413086 20.46264648 C-24.96343006 24.12092322 -24.95036197 27.77918767 -24.9375 31.4375 C-24.92912109 32.71689453 -24.92074219 33.99628906 -24.91210938 35.31445312 C-24.90888672 36.52939453 -24.90566406 37.74433594 -24.90234375 38.99609375 C-24.89710693 40.12200928 -24.89187012 41.2479248 -24.88647461 42.40795898 C-25 45 -25 45 -26 46 C-27.98 46 -29.96 46 -32 46 C-32 35.44 -32 24.88 -32 14 C-20.375 8.6875 -20.375 8.6875 -16.74365234 7.0300293 C-15.78410645 6.59086182 -14.82456055 6.15169434 -13.8359375 5.69921875 C-12.86188965 5.25408936 -11.8878418 4.80895996 -10.88427734 4.3503418 C-8.8230692 3.38533907 -6.78355421 2.37344333 -4.76025391 1.33129883 C-2 0 -2 0 0 0 Z " fill="#FCF2FA" transform="translate(173,130)"/>
<path d="M0 0 C0 11.55 0 23.1 0 35 C-1.65 35.66 -3.3 36.32 -5 37 C-5.495 37.495 -5.495 37.495 -6 38 C-7.98 38 -9.96 38 -12 38 C-12 27.11 -12 16.22 -12 5 C-10.35 5 -8.7 5 -7 5 C-7 4.01 -7 3.02 -7 2 C-1.125 0 -1.125 0 0 0 Z " fill="#A466AF" transform="translate(129,165)"/>
<path d="M0 0 C0.18433594 0.59941406 0.36867188 1.19882813 0.55859375 1.81640625 C2.65782527 4.99654288 5.60542141 5.72870758 9.0625 6.9375 C13.50345404 8.5297113 17.63854226 10.27939559 21.75561523 12.60375977 C22.55402328 13.05284195 23.35243134 13.50192413 24.17503357 13.96461487 C24.77727249 14.30629196 25.37951141 14.64796906 26 15 C26.0505963 21.37203593 26.08568957 27.7440203 26.10986328 34.11621094 C26.11993789 36.28517594 26.13359798 38.45412731 26.15087891 40.62304688 C26.17506323 43.73571126 26.18646832 46.84819651 26.1953125 49.9609375 C26.20563507 50.934935 26.21595764 51.9089325 26.22659302 52.91244507 C26.22674408 53.81322784 26.22689514 54.71401062 26.22705078 55.64208984 C26.231492 56.43706879 26.23593323 57.23204773 26.24050903 58.05111694 C26 60 26 60 24 62 C23.34 61.67 22.68 61.34 22 61 C21.34 47.14 20.68 33.28 20 19 C17.36 18.01 14.72 17.02 12 16 C10.55924479 15.34843414 9.12832248 14.67356393 7.71875 13.95703125 C7.02265625 13.60576172 6.3265625 13.25449219 5.609375 12.89257812 C4.56523437 12.35793945 4.56523437 12.35793945 3.5 11.8125 C2.77296875 11.44447266 2.0459375 11.07644531 1.296875 10.69726562 C-0.4706325 9.80188354 -2.23559239 8.90147525 -4 8 C-4 5.69 -4 3.38 -4 1 C-2 0 -2 0 0 0 Z " fill="#F2B3DB" transform="translate(278,125)"/>
<path d="M0 0 C-0.33 10.56 -0.66 21.12 -1 32 C-0.34 32.33 0.32 32.66 1 33 C-7.42857143 36.42857143 -7.42857143 36.42857143 -12 36 C-13.51040025 29.66119838 -13.00468149 23.34402434 -12.8125 16.875 C-12.79380859 15.58722656 -12.77511719 14.29945313 -12.75585938 12.97265625 C-12.71912109 11.74160156 -12.68238281 10.51054687 -12.64453125 9.2421875 C-12.61721924 8.1166748 -12.58990723 6.99116211 -12.56176758 5.83154297 C-12 3 -12 3 -10.0847168 1.15673828 C-6.12255764 -1.04172876 -4.51627625 -1.12906906 0 0 Z " fill="#A465AF" transform="translate(147,261)"/>
<path d="M0 0 C0 1.98 0 3.96 0 6 C-6.60435267 9.35752007 -13.243615 12.63743983 -19.9375 15.8125 C-20.56342041 16.11422119 -21.18934082 16.41594238 -21.83422852 16.72680664 C-25.32670593 18.36963575 -28.14549224 19.22909845 -32 20 C-32 30.23 -32 40.46 -32 51 C-33.65 50.67 -35.3 50.34 -37 50 C-37 38.78 -37 27.56 -37 16 C-32.05 13.69 -27.1 11.38 -22 9 C-20.47375 8.236875 -18.9475 7.47375 -17.375 6.6875 C-10 3 -10 3 -5 3 C-5 2.34 -5 1.68 -5 1 C-2 0 -2 0 0 0 Z " fill="#F2B1DB" transform="translate(173,124)"/>
<path d="M0 0 C6.42555062 1.14558303 12.50809934 3.37984652 18.6875 5.4375 C19.93595703 5.84548828 21.18441406 6.25347656 22.47070312 6.67382812 C23.65986328 7.06892578 24.84902344 7.46402344 26.07421875 7.87109375 C27.70750122 8.41141235 27.70750122 8.41141235 29.3737793 8.96264648 C32 10 32 10 34 12 C34 13.32 34 14.64 34 16 C30.25 17.125 30.25 17.125 28 16 C27.67 16.99 27.34 17.98 27 19 C16.50500922 18.30033395 7.22289267 14.96617298 -2 10 C-2 7.36 -2 4.72 -2 2 C-1.34 2 -0.68 2 0 2 C0 1.34 0 0.68 0 0 Z " fill="#FDF4FC" transform="translate(107,219)"/>
<path d="M0 0 C3.5 0.125 3.5 0.125 4.5 1.125 C4.58855161 3.7912603 4.61524673 6.43147114 4.59765625 9.09765625 C4.5962413 9.89529892 4.59482635 10.69294159 4.59336853 11.51475525 C4.58775316 14.07237435 4.57519812 16.62990718 4.5625 19.1875 C4.55748698 20.91731645 4.55292373 22.64713426 4.54882812 24.37695312 C4.53777875 28.62633553 4.52050386 32.87565312 4.5 37.125 C3.84 37.125 3.18 37.125 2.5 37.125 C2.5 37.785 2.5 38.445 2.5 39.125 C-3.375 37.25 -3.375 37.25 -4.5 36.125 C-4.60091475 33.54310554 -4.63971499 30.988535 -4.6328125 28.40625 C-4.63376923 27.63317505 -4.63472595 26.8601001 -4.63571167 26.06359863 C-4.63639341 24.42602456 -4.63453957 22.78844781 -4.63037109 21.15087891 C-4.62502271 18.63568079 -4.63031626 16.12066127 -4.63671875 13.60546875 C-4.63605797 12.01822877 -4.6347768 10.4309889 -4.6328125 8.84375 C-4.63483673 8.08646606 -4.63686096 7.32918213 -4.63894653 6.5489502 C-4.61009123 0.16464612 -4.61009123 0.16464612 0 0 Z " fill="#FCF1FA" transform="translate(181.5,262.875)"/>
<path d="M0 0 C1 1 1 1 1.0625 3.5625 C1.041875 4.366875 1.02125 5.17125 1 6 C-2.67750648 7.39535367 -6.35799689 8.78250824 -10.04125977 10.16259766 C-11.89952358 10.86073256 -13.7554539 11.56506862 -15.61132812 12.26953125 C-22.0502297 14.67757574 -28.26465222 16.64293099 -35 18 C-35.33 18.33 -35.66 18.66 -36 19 C-37.99958364 19.04080783 -40.00045254 19.04254356 -42 19 C-42.33 17.35 -42.66 15.7 -43 14 C-39.27839327 11.60235541 -35.63140647 10.01543711 -31.45703125 8.5546875 C-29.59981445 7.89919922 -29.59981445 7.89919922 -27.70507812 7.23046875 C-26.40763699 6.77840209 -25.11010996 6.32658186 -23.8125 5.875 C-21.25579365 4.97858706 -18.7001634 4.07916325 -16.14453125 3.1796875 C-15.01378174 2.78507324 -13.88303223 2.39045898 -12.71801758 1.98388672 C-7.89031526 0.23632179 -5.24581974 -0.16653396 0 0 Z " fill="#F9EDF9" transform="translate(282,189)"/>
<path d="M0 0 C0 9.24 0 18.48 0 28 C-4.95 29.485 -4.95 29.485 -10 31 C-10 21.76 -10 12.52 -10 3 C-4 0 -4 0 0 0 Z " fill="#A566AF" transform="translate(210,194)"/>
<path d="M0 0 C0.14483042 4.43715855 0.23391752 8.87371277 0.3125 13.3125 C0.3753418 15.20645508 0.3753418 15.20645508 0.43945312 17.13867188 C0.45556641 18.34716797 0.47167969 19.55566406 0.48828125 20.80078125 C0.51446533 21.91622314 0.54064941 23.03166504 0.56762695 24.1809082 C0 27 0 27 -2.21801758 28.88745117 C-5.06892117 30.02756242 -6.96526358 30.26012026 -10 30 C-10.11614929 25.9169058 -10.18723457 21.83423623 -10.25 17.75 C-10.28351563 16.59113281 -10.31703125 15.43226563 -10.3515625 14.23828125 C-10.36445313 13.12324219 -10.37734375 12.00820312 -10.390625 10.859375 C-10.41157227 9.83295898 -10.43251953 8.80654297 -10.45410156 7.74902344 C-9.8827286 4.29006667 -8.68762541 3.17034186 -6 1 C-4 0 -4 0 0 0 Z " fill="#A466AE" transform="translate(344,242)"/>
<path d="M0 0 C1.41791408 0.45445964 2.83428046 0.91374944 4.25 1.375 C5.43335938 1.75785156 5.43335938 1.75785156 6.640625 2.1484375 C8.86627958 2.95173667 10.90931672 3.89711662 13 5 C13 5.66 13 6.32 13 7 C12.11957031 7.32613281 11.23914063 7.65226563 10.33203125 7.98828125 C8.58986328 8.64376953 8.58986328 8.64376953 6.8125 9.3125 C5.66394531 9.74175781 4.51539063 10.17101562 3.33203125 10.61328125 C0.33757656 11.859508 -2.26030522 13.28097582 -5 15 C-9.91197832 16.80105872 -14.68361368 16.57442312 -19.4375 14.5 C-20.283125 14.005 -21.12875 13.51 -22 13 C-21 10 -21 10 -18.0859375 8.4296875 C-16.85377892 7.90009882 -15.61649872 7.38230646 -14.375 6.875 C-13.16585938 6.35679687 -11.95671875 5.83859375 -10.7109375 5.3046875 C-7.0037204 4.00130801 -3.88085263 3.40903588 0 3 C0 2.01 0 1.02 0 0 Z " fill="#E5A2D6" transform="translate(339,136)"/>
<path d="M0 0 C5.07000802 2.74214442 10.28842202 4.37101369 16.0078125 5.0859375 C16.0078125 6.0759375 16.0078125 7.0659375 16.0078125 8.0859375 C9.46098484 11.00862842 4.67565716 11.63057157 -2.24169922 9.34155273 C-4.57324998 8.44233958 -6.87845808 7.49755389 -9.1796875 6.5234375 C-15.82864138 3.54286955 -15.82864138 3.54286955 -22.9921875 3.0859375 C-16.28396572 -4.36764226 -8.4087538 -4.64954622 0 0 Z " fill="#E8A4D7" transform="translate(111.9921875,157.9140625)"/>
<path d="M0 0 C2.96227542 1.35748057 5.99904707 2.49071742 9.04296875 3.65234375 C10.18636719 4.08933594 11.32976562 4.52632813 12.5078125 4.9765625 C13.36503906 5.30269531 14.22226563 5.62882812 15.10546875 5.96484375 C12.79562667 9.42960686 12.06518562 9.95385221 8.10546875 10.96484375 C0.23967442 11.27684812 -6.76846175 7.89226175 -13.89453125 4.96484375 C-15.49598103 4.35351187 -17.09967655 3.74797696 -18.70703125 3.15234375 C-19.75890625 2.76046875 -20.81078125 2.36859375 -21.89453125 1.96484375 C-21.89453125 1.30484375 -21.89453125 0.64484375 -21.89453125 -0.03515625 C-14.02292373 -3.61315967 -7.92723623 -3.78473749 0 0 Z " fill="#E9A6D8" transform="translate(129.89453125,252.03515625)"/>
<path d="M0 0 C4.88179827 0.69739975 8.50793002 1.35655976 13 3 C12.01 3.495 12.01 3.495 11 4 C11 10.27 11 16.54 11 23 C12.65 22.67 14.3 22.34 16 22 C15.67 22.66 15.34 23.32 15 24 C8.06243076 24.59043142 6.15916885 23.18185282 -1 20 C-0.67 13.4 -0.34 6.8 0 0 Z " fill="#B475B8" transform="translate(174,124)"/>
<path d="M0 0 C0.33 0 0.66 0 1 0 C1 8.25 1 16.5 1 25 C2.98 24.01 4.96 23.02 7 22 C7.66 22 8.32 22 9 22 C9 15.4 9 8.8 9 2 C9.99 2 10.98 2 12 2 C11.67 2.66 11.34 3.32 11 4 C10.84995027 5.3734635 10.75161994 6.7528526 10.68359375 8.1328125 C10.64169922 8.93847656 10.59980469 9.74414062 10.55664062 10.57421875 C10.49766602 11.83685547 10.49766602 11.83685547 10.4375 13.125 C10.39431641 13.97449219 10.35113281 14.82398438 10.30664062 15.69921875 C10.20045764 17.79928223 10.09971503 19.89961948 10 22 C10.64324219 22.10183594 11.28648437 22.20367187 11.94921875 22.30859375 C16.02972077 23.23336822 19.88149915 24.64233121 23.8125 26.0625 C24.60076172 26.34416016 25.38902344 26.62582031 26.20117188 26.91601562 C28.13522289 27.60758538 30.06776488 28.30337278 32 29 C29.77238052 31.28409434 28.06280935 32.94989394 25 34 C19.80081121 33.46674987 15.12681867 31.77338861 10.25 30 C9.48300781 29.72671875 8.71601563 29.4534375 7.92578125 29.171875 C2.33462733 27.16731366 2.33462733 27.16731366 0 26 C0 17.42 0 8.84 0 0 Z " fill="#E6A8D9" transform="translate(177,163)"/>
<path d="M0 0 C1.39482079 -0.08204828 2.79108728 -0.13966204 4.1875 -0.1875 C5.35345703 -0.23970703 5.35345703 -0.23970703 6.54296875 -0.29296875 C9.6521063 0.07775512 11.34386809 1.34712486 14 3 C16.62824874 4.12639232 19.31070195 5.09246721 22 6.0625 C24.05797995 6.81620668 26.11548654 7.57103121 28.17114258 8.33105469 C29.75756277 8.91132319 31.35270986 9.46762553 32.94921875 10.01953125 C33.62597656 10.34308594 34.30273438 10.66664062 35 11 C35.8125 13.625 35.8125 13.625 36 16 C33.99855726 15.67544172 31.99907671 15.33882656 30 15 C29.21109375 14.90074219 28.4221875 14.80148438 27.609375 14.69921875 C19.66359128 13.54917111 13.15833102 10.52742987 6 7 C3.67866095 5.96702318 1.34378677 4.98112005 -1 4 C-0.67 2.68 -0.34 1.36 0 0 Z " fill="#FDF1FB" transform="translate(175,99)"/>
<path d="M0 0 C3.30277829 1.41328187 6.6448786 2.71658463 10 4 C10 6.31 10 8.62 10 11 C9.505 10.01 9.505 10.01 9 9 C7.33861004 8.6412908 5.67015782 8.31537555 4 8 C1.29991642 7.13026154 -1.3471305 6.1283916 -4 5.125 C-4.69867188 4.86847656 -5.39734375 4.61195312 -6.1171875 4.34765625 C-9.19784846 3.19095525 -11.91796527 2.05058222 -14.73046875 0.31640625 C-18.26028976 -1.73101144 -20.98852541 -1.20397328 -25 -1 C-17.08351997 -8.91648003 -8.26917145 -5.16823215 0 0 Z " fill="#F1B3DC" transform="translate(201,101)"/>
<path d="M0 0 C2.22833988 0.93269529 4.41978646 1.92499403 6.609375 2.9453125 C10.31300427 4.57926659 14.13918772 5.79520752 18 7 C17.37738281 7.30550781 16.75476563 7.61101562 16.11328125 7.92578125 C14.00855127 8.94711923 14.00855127 8.94711923 12.1875 10.1875 C6.53429853 12.28726055 0.31062598 9.15726673 -4.9375 6.9375 C-5.62134766 6.65583984 -6.30519531 6.37417969 -7.00976562 6.08398438 C-8.67613946 5.3964595 -10.33850727 4.69923825 -12 4 C-12 3.34 -12 2.68 -12 2 C-7.47782347 -0.69177174 -5.08028904 -1.49420266 0 0 Z " fill="#E6A4D8" transform="translate(326,234)"/>
<path d="M0 0 C0.66 0.33 1.32 0.66 2 1 C2 26.74 2 52.48 2 79 C1.34 79 0.68 79 0 79 C0 53.59 0 28.18 0 2 C-0.66 1.67 -1.32 1.34 -2 1 C-1.34 0.67 -0.68 0.34 0 0 Z " fill="#A86AAF" transform="translate(99,195)"/>
<path d="M0 0 C0.33 0 0.66 0 1 0 C1.33 2.31 1.66 4.62 2 7 C10.25 9.64 18.5 12.28 27 15 C27 16.32 27 17.64 27 19 C16.50500922 18.30033395 7.22289267 14.96617298 -2 10 C-2 7.36 -2 4.72 -2 2 C-1.34 2 -0.68 2 0 2 C0 1.34 0 0.68 0 0 Z " fill="#ECAFDB" transform="translate(107,219)"/>
<path d="M0 0 C-15.63579095 7.90422806 -15.63579095 7.90422806 -20.875 10.1875 C-24.08005046 11.58932361 -27.2723568 13.00972632 -30.4375 14.5 C-31.26121094 14.8815625 -32.08492188 15.263125 -32.93359375 15.65625 C-35.28845023 17.18757444 -35.99742876 18.41413319 -37 21 C-37.66 20.34 -38.32 19.68 -39 19 C-38.984375 16.58984375 -38.984375 16.58984375 -38 14 C-35.515625 12.19140625 -35.515625 12.19140625 -32.25 10.5625 C-31.074375 9.97082031 -29.89875 9.37914063 -28.6875 8.76953125 C-27.4592599 8.17776051 -26.23009947 7.58789594 -25 7 C-23.865625 6.44699219 -22.73125 5.89398438 -21.5625 5.32421875 C-4.31127367 -2.87418244 -4.31127367 -2.87418244 0 0 Z " fill="#F0B4DA" transform="translate(292,111)"/>
<path d="M0 0 C0 3.3 0 6.6 0 10 C-4.17737474 11.59138085 -7.53160785 12.21278058 -12 12 C-13.61949011 9.42786866 -14.04408751 8.32330841 -13.625 5.25 C-13.41875 4.5075 -13.2125 3.765 -13 3 C-11.58603098 2.49242138 -10.16868271 1.99425075 -8.75 1.5 C-7.96109375 1.2215625 -7.1721875 0.943125 -6.359375 0.65625 C-4 0 -4 0 0 0 Z " fill="#FBF2FB" transform="translate(312,255)"/>
<path d="M0 0 C0.66 0.33 1.32 0.66 2 1 C1.67 11.89 1.34 22.78 1 34 C2.32 34.33 3.64 34.66 5 35 C5.99 35.66 6.98 36.32 8 37 C7.34 37 6.68 37 6 37 C6 37.66 6 38.32 6 39 C0.125 37.125 0.125 37.125 -1 36 C-1.10091475 33.41810554 -1.13971499 30.863535 -1.1328125 28.28125 C-1.13376923 27.50817505 -1.13472595 26.7351001 -1.13571167 25.93859863 C-1.13639341 24.30102456 -1.13453957 22.66344781 -1.13037109 21.02587891 C-1.12502271 18.51068079 -1.13031626 15.99566127 -1.13671875 13.48046875 C-1.13605797 11.89322877 -1.1347768 10.3059889 -1.1328125 8.71875 C-1.13483673 7.96146606 -1.13686096 7.20418213 -1.13894653 6.4239502 C-1.11495132 1.11495132 -1.11495132 1.11495132 0 0 Z " fill="#E9B1DA" transform="translate(178,263)"/>
<path d="M0 0 C0.66 1.32 1.32 2.64 2 4 C2.98742187 3.98839844 3.97484375 3.97679687 4.9921875 3.96484375 C6.27351562 3.95582031 7.55484375 3.94679688 8.875 3.9375 C10.15117187 3.92589844 11.42734375 3.91429687 12.7421875 3.90234375 C16 4 16 4 18 5 C20.3400417 4.71758117 22.67504723 4.38749213 25 4 C21.68742918 6.20838055 18.36583975 7.38286788 14.625 8.625 C13.965 8.85445313 13.305 9.08390625 12.625 9.3203125 C8.97578468 10.54156384 5.85183766 11.28256724 2 11 C0.19769832 7.17010894 -0.19622241 4.21878192 0 0 Z " fill="#E9A9DB" transform="translate(231,280)"/>
<path d="M0 0 C0.99 0 1.98 0 3 0 C3.07421454 3.93260944 3.12863136 7.86494722 3.16479492 11.7980957 C3.18728333 13.79327701 3.22540198 15.78826213 3.26367188 17.78320312 C3.27333984 19.03681641 3.28300781 20.29042969 3.29296875 21.58203125 C3.3086792 22.73936768 3.32438965 23.8967041 3.34057617 25.08911133 C3 28 3 28 0 31 C0 20.77 0 10.54 0 0 Z " fill="#E1B0D3" transform="translate(225,120)"/>
<path d="M0 0 C1 1 1 1 1.0625 3.5625 C1.041875 4.366875 1.02125 5.17125 1 6 C-0.26839526 6.50615298 -1.53983102 7.00469099 -2.8125 7.5 C-3.87404297 7.91765625 -3.87404297 7.91765625 -4.95703125 8.34375 C-7 9 -7 9 -10 9 C-8.125 4.25 -8.125 4.25 -7 2 C-7.99 1.67 -8.98 1.34 -10 1 C-6.74696956 -0.62651522 -3.60774398 -0.11453156 0 0 Z " fill="#FAE5F7" transform="translate(282,189)"/>
<path d="M0 0 C-0.33 0.99 -0.66 1.98 -1 3 C-2.98836548 3.55413464 -4.9809402 4.09986419 -6.99609375 4.546875 C-9.31444372 5.07110228 -11.06967213 5.58937579 -13 7 C-14.28254644 9.53770003 -14.28254644 9.53770003 -15 12 C-19.455 11.01 -19.455 11.01 -24 10 C-20.36536934 6.92381519 -16.32588233 5.18940003 -12 3.3125 C-11.2884375 2.99216797 -10.576875 2.67183594 -9.84375 2.34179688 C-8.80734375 1.88836914 -8.80734375 1.88836914 -7.75 1.42578125 C-7.12609375 1.15161377 -6.5021875 0.87744629 -5.859375 0.5949707 C-4 0 -4 0 0 0 Z " fill="#DDACD3" transform="translate(172,139)"/>
<path d="M0 0 C-1.918125 0.4640625 -1.918125 0.4640625 -3.875 0.9375 C-6.12331232 1.66834681 -6.12331232 1.66834681 -8 3 C-8.97739952 5.27475493 -9.30516798 7.32149368 -9.640625 9.76953125 C-10.10608402 12.65841275 -11.26898321 14.66689042 -13 17 C-13.33 17 -13.66 17 -14 17 C-14.61438945 11.16330027 -12.95564445 5.99558311 -10 1 C-6.18730026 -1.1446436 -4.07643521 -1.16846095 0 0 Z " fill="#EFBAD9" transform="translate(302,231)"/>
<path d="M0 0 C0.66 0 1.32 0 2 0 C2 8.25 2 16.5 2 25 C1.34 24.67 0.68 24.34 0 24 C-0.16795811 20.89590179 -0.33414323 17.79171114 -0.5 14.6875 C-0.54769531 13.80642578 -0.59539062 12.92535156 -0.64453125 12.01757812 C-0.68964844 11.17001953 -0.73476563 10.32246094 -0.78125 9.44921875 C-0.82314453 8.66893311 -0.86503906 7.88864746 -0.90820312 7.0847168 C-1.12140781 2.24281563 -1.12140781 2.24281563 0 0 Z " fill="#9355A0" transform="translate(342,242)"/>
<path d="M0 0 C0.45375 0.495 0.9075 0.99 1.375 1.5 C2.87635519 3.22609337 2.87635519 3.22609337 5 3 C5 3.66 5 4.32 5 5 C5.66 5 6.32 5 7 5 C6.34 8.63 5.68 12.26 5 16 C2.73624013 13.73624013 2.55027245 12.75136227 1.9375 9.6875 C1.77378906 8.88828125 1.61007813 8.0890625 1.44140625 7.265625 C1.29574219 6.51796875 1.15007812 5.7703125 1 5 C0.690625 3.4840625 0.690625 3.4840625 0.375 1.9375 C0.25125 1.298125 0.1275 0.65875 0 0 Z " fill="#EAA9D8" transform="translate(155,229)"/>
<path d="M0 0 C5.06180498 1.84291556 10.03255639 3.91877857 15 6 C12.18274354 7.13235974 11.0220231 7.00725259 8.08203125 6.0390625 C7.00308594 5.57242188 5.92414063 5.10578125 4.8125 4.625 C-0.62421514 2.40981471 -5.15691502 1.29710602 -11 1 C-11 0.34 -11 -0.32 -11 -1 C-7.44107649 -2.77946175 -3.63932211 -1.09179663 0 0 Z " fill="#CD8DC6" transform="translate(227,85)"/>
<path d="M0 0 C0.99 0.33 1.98 0.66 3 1 C3 3.64 3 6.28 3 9 C1.41913952 9.36504603 -0.16483907 9.71660506 -1.75 10.0625 C-2.63171875 10.25972656 -3.5134375 10.45695313 -4.421875 10.66015625 C-7 11 -7 11 -11 10 C-7.37 9.01 -3.74 8.02 0 7 C0 4.69 0 2.38 0 0 Z " fill="#F0B6DE" transform="translate(330,213)"/>
<path d="M0 0 C-3.20953731 2.13969154 -6.1909218 3.30595874 -9.8125 4.625 C-11.01519531 5.07101562 -12.21789062 5.51703125 -13.45703125 5.9765625 C-16.85361335 6.95771411 -19.49224975 7.20412635 -23 7 C-23.33 6.34 -23.66 5.68 -24 5 C-22.80503906 4.83564453 -22.80503906 4.83564453 -21.5859375 4.66796875 C-14.15461146 3.55598201 -7.35348136 -0.52524867 0 0 Z " fill="#EDA6DF" transform="translate(239,258)"/>
<path d="M0 0 C2.475 0.495 2.475 0.495 5 1 C1.6128754 2.78051782 -1.87061827 4.1811065 -5.4375 5.5625 C-6.54996094 5.99691406 -7.66242188 6.43132812 -8.80859375 6.87890625 C-11.55547729 7.84384576 -14.13493237 8.52338127 -17 9 C-14.64185996 6.30166927 -12.38202294 5.11535036 -9.0625 3.8125 C-8.20785156 3.46832031 -7.35320312 3.12414062 -6.47265625 2.76953125 C-4 2 -4 2 0 2 C0 1.34 0 0.68 0 0 Z " fill="#EDBDDB" transform="translate(257,97)"/>
<path d="M0 0 C0.33 1.32 0.66 2.64 1 4 C-3.17737474 5.59138085 -6.53160785 6.21278058 -11 6 C-11 5.01 -11 4.02 -11 3 C-9.948125 2.814375 -9.948125 2.814375 -8.875 2.625 C-5.82343613 1.96161655 -2.94659062 1.02788045 0 0 Z " fill="#E6ADDC" transform="translate(311,261)"/>
<path d="M0 0 C6.15234375 -0.09765625 6.15234375 -0.09765625 8 0 C9 1 9 1 9.0625 3.5625 C9.041875 4.366875 9.02125 5.17125 9 6 C4.375 8.125 4.375 8.125 1 7 C2.32 6.67 3.64 6.34 5 6 C5 4.35 5 2.7 5 1 C3.35 1 1.7 1 0 1 C0 0.67 0 0.34 0 0 Z " fill="#E3ACDC" transform="translate(274,189)"/>
<path d="M0 0 C0.66 0.33 1.32 0.66 2 1 C1.38125 1.2475 0.7625 1.495 0.125 1.75 C-2.45868886 3.01039254 -2.45868886 3.01039254 -4 7 C-6.97 6.67 -9.94 6.34 -13 6 C-10.1364183 4.56820915 -7.2790848 3.15770316 -4.375 1.8125 C-3.59898437 1.44769531 -2.82296875 1.08289063 -2.0234375 0.70703125 C-1.35570312 0.47371094 -0.68796875 0.24039063 0 0 Z " fill="#A162AB" transform="translate(259,158)"/>
<path d="M0 0 C-0.33 0.99 -0.66 1.98 -1 3 C-2.8125 3.6953125 -2.8125 3.6953125 -5 4.125 C-7.77345082 4.53607145 -7.77345082 4.53607145 -10 6 C-11.66617115 6.04063832 -13.33388095 6.042721 -15 6 C-10.50332388 2.22279206 -5.9028782 0 0 0 Z " fill="#E4B7D7" transform="translate(172,139)"/>
<path d="M0 0 C5.75 0.875 5.75 0.875 8 2 C8 2.66 8 3.32 8 4 C5.69 4.66 3.38 5.32 1 6 C0 1.125 0 1.125 0 0 Z " fill="#D795CD" transform="translate(329,125)"/>
<path d="M0 0 C0.99 0 1.98 0 3 0 C2.67 1.98 2.34 3.96 2 6 C-2.455 6.495 -2.455 6.495 -7 7 C-6.67 6.01 -6.34 5.02 -6 4 C-4.02 4 -2.04 4 0 4 C0 2.68 0 1.36 0 0 Z " fill="#BD89BC" transform="translate(141,231)"/>
<path d="M0 0 C-1.98 0.99 -1.98 0.99 -4 2 C-3.67 2.66 -3.34 3.32 -3 4 C-6.375 4.125 -6.375 4.125 -10 4 C-10.66 3.34 -11.32 2.68 -12 2 C-10.56656 1.46809459 -9.12804633 0.94984742 -7.6875 0.4375 C-6.48673828 0.00244141 -6.48673828 0.00244141 -5.26171875 -0.44140625 C-3 -1 -3 -1 0 0 Z " fill="#F1B7DE" transform="translate(319,225)"/>
<path d="M0 0 C0.66 0 1.32 0 2 0 C2.13277344 0.63808594 2.26554688 1.27617187 2.40234375 1.93359375 C2.57894531 2.75988281 2.75554687 3.58617187 2.9375 4.4375 C3.19853516 5.67306641 3.19853516 5.67306641 3.46484375 6.93359375 C3.80752994 8.97661204 3.80752994 8.97661204 5 10 C5.04092937 12.33297433 5.04241723 14.66705225 5 17 C3.025333 14.03799949 2.28044646 11.90228368 1.375 8.5 C1.11460937 7.5409375 0.85421875 6.581875 0.5859375 5.59375 C0 3 0 3 0 0 Z " fill="#C79BC4" transform="translate(165,221)"/>
<path d="M0 0 C3.77853482 0.61511032 5.22571222 2.62402825 7.6875 5.4375 C1.7475 3.9525 1.7475 3.9525 -4.3125 2.4375 C-2.3125 0.4375 -2.3125 0.4375 0 0 Z " fill="#C391C1" transform="translate(196.3125,243.5625)"/>
<path d="M0 0 C-2.21368294 2.21368294 -3.93016625 3.86552921 -7.11328125 4.265625 C-9.07746787 4.25166986 -11.0402625 4.13286356 -13 4 C-10.56272708 2.37515139 -8.62713877 1.34310925 -5.9375 0.3125 C-5.24527344 0.04050781 -4.55304688 -0.23148438 -3.83984375 -0.51171875 C-2 -1 -2 -1 0 0 Z " fill="#A666AD" transform="translate(243,166)"/>
<path d="M0 0 C0 2 0 2 -2.0625 4.1875 C-5.8355766 6.51556854 -7.78210678 5.99244546 -12 5 C-10.66666667 4.33333333 -9.33333333 3.66666667 -8 3 C-6.96875 2.46375 -5.9375 1.9275 -4.875 1.375 C-2 0 -2 0 0 0 Z " fill="#E3B2D4" transform="translate(218,152)"/>
<path d="M0 0 C0.33 0.99 0.66 1.98 1 3 C1.66 3.33 2.32 3.66 3 4 C2.67 4.99 2.34 5.98 2 7 C-0.02045442 6.39816251 -2.02111039 5.72693904 -4 5 C-4.33 4.34 -4.66 3.68 -5 3 C-3.35 2.01 -1.7 1.02 0 0 Z " fill="#EDACDB" transform="translate(343,137)"/>
<path d="M0 0 C-0.66 0 -1.32 0 -2 0 C-2.33 0.66 -2.66 1.32 -3 2 C-5.3140622 2.73075648 -7.64828869 3.40138258 -10 4 C-10 4.66 -10 5.32 -10 6 C-10.66 6 -11.32 6 -12 6 C-11.7421875 4.11328125 -11.7421875 4.11328125 -11 2 C-9.2578125 0.91796875 -9.2578125 0.91796875 -7.125 0.1875 C-6.42632812 -0.06644531 -5.72765625 -0.32039063 -5.0078125 -0.58203125 C-3 -1 -3 -1 0 0 Z " fill="#D18FC9" transform="translate(114,125)"/>
<path d="M0 0 C2.125 0.375 2.125 0.375 4 1 C3.360625 1.474375 2.72125 1.94875 2.0625 2.4375 C-0.84850272 6.05420035 -0.80649782 9.47204894 -1 14 C-1.33 14 -1.66 14 -2 14 C-2.05389087 12.04196493 -2.09274217 10.08351091 -2.125 8.125 C-2.14820313 7.03445312 -2.17140625 5.94390625 -2.1953125 4.8203125 C-2 2 -2 2 0 0 Z " fill="#FBE2F5" transform="translate(220,114)"/>
<path d="M0 0 C9.41002278 0.96355353 9.41002278 0.96355353 14 2 C14 2.99 14 3.98 14 5 C12.22739369 4.54857225 10.4569632 4.08859477 8.6875 3.625 C7.20830078 3.24214844 7.20830078 3.24214844 5.69921875 2.8515625 C3 2 3 2 0 0 Z " fill="#BC93BD" transform="translate(205,249)"/>
<path d="M0 0 C0.66 0.33 1.32 0.66 2 1 C1.06414062 1.35191406 1.06414062 1.35191406 0.109375 1.7109375 C-2.60255941 3.36823075 -2.88975997 4.6141599 -3.75 7.625 C-3.99234375 8.44226563 -4.2346875 9.25953125 -4.484375 10.1015625 C-4.65453125 10.72804687 -4.8246875 11.35453125 -5 12 C-5.33 12 -5.66 12 -6 12 C-5.67 8.7 -5.34 5.4 -5 2 C-2.625 0.9375 -2.625 0.9375 0 0 Z " fill="#966AA8" transform="translate(289,225)"/>
<path d="M0 0 C0.66 0 1.32 0 2 0 C2.36630156 3.93774177 2.30233203 5.56539771 0 8.875 C-0.66 9.57625 -1.32 10.2775 -2 11 C-3.13643966 7.59068103 -2.86747764 6.99664544 -1.5625 3.8125 C-1.13130859 2.73935547 -1.13130859 2.73935547 -0.69140625 1.64453125 C-0.46324219 1.10183594 -0.23507812 0.55914062 0 0 Z " fill="#EDBBDB" transform="translate(284,254)"/>
<path d="M0 0 C2.02399261 0.77514611 3.99439366 1.60418056 5.953125 2.53125 C5.623125 3.52125 5.293125 4.51125 4.953125 5.53125 C4.293125 5.20125 3.633125 4.87125 2.953125 4.53125 C2.953125 4.20125 2.953125 3.87125 2.953125 3.53125 C-0.016875 3.20125 -2.986875 2.87125 -6.046875 2.53125 C-4.09775554 0.33849061 -2.96192593 -0.67830365 0 0 Z " fill="#F5D9F2" transform="translate(294.046875,110.46875)"/>
<path d="M0 0 C0.6875 1.8125 0.6875 1.8125 1 4 C-0.125 5.75 -0.125 5.75 -2 7 C-4.6875 7.1875 -4.6875 7.1875 -7 7 C-7 6.34 -7 5.68 -7 5 C-6.030625 4.54625 -5.06125 4.0925 -4.0625 3.625 C-0.92920418 2.34213779 -0.92920418 2.34213779 0 0 Z " fill="#A462A9" transform="translate(284,272)"/>
<path d="M0 0 C3.3 0 6.6 0 10 0 C10.66 1.32 11.32 2.64 12 4 C7.80530429 3.40075776 3.99000166 2.42500059 0 1 C0 0.67 0 0.34 0 0 Z " fill="#BF93C0" transform="translate(136,183)"/>
<path d="M0 0 C0.99 0 1.98 0 3 0 C3.33 0.99 3.66 1.98 4 3 C0.49223216 4.60355101 -2.14354879 5.22036864 -6 5 C-5.195625 4.360625 -4.39125 3.72125 -3.5625 3.0625 C-1.7249496 1.59396498 -1.7249496 1.59396498 0 0 Z " fill="#F6B0DE" transform="translate(250,281)"/>
<path d="M0 0 C2.0625 0.4375 2.0625 0.4375 4 1 C3.01 2.32 2.02 3.64 1 5 C1.99 5 2.98 5 4 5 C4 5.66 4 6.32 4 7 C2.68 6.67 1.36 6.34 0 6 C-0.38218767 4.34385343 -0.71395102 2.67542976 -1 1 C-0.67 0.67 -0.34 0.34 0 0 Z " fill="#EFD7F1" transform="translate(299,258)"/>
<path d="M0 0 C0.66 0.99 1.32 1.98 2 3 C-1.96 3 -5.92 3 -10 3 C-7.28464405 0.28464405 -3.67870689 -1.83935344 0 0 Z " fill="#E3B8DD" transform="translate(186,97)"/>
<path d="M0 0 C0.66 0 1.32 0 2 0 C1.54803755 1.60597325 1.08817673 3.20972508 0.625 4.8125 C0.36976563 5.70582031 0.11453125 6.59914063 -0.1484375 7.51953125 C-1 10 -1 10 -3 13 C-2.88490339 11.58249437 -2.75746342 10.16598831 -2.625 8.75 C-2.55539062 7.96109375 -2.48578125 7.1721875 -2.4140625 6.359375 C-1.98492887 3.914123 -1.21399362 2.15163097 0 0 Z " fill="#986BA4" transform="translate(276,252)"/>
<path d="M0 0 C2.64 0 5.28 0 8 0 C8 0.66 8 1.32 8 2 C9.32 2 10.64 2 12 2 C12 2.66 12 3.32 12 4 C7.80530429 3.40075776 3.99000166 2.42500059 0 1 C0 0.67 0 0.34 0 0 Z " fill="#C598C2" transform="translate(180,241)"/>
<path d="M0 0 C0 0.66 0 1.32 0 2 C-3.50776784 3.60355101 -6.14354879 4.22036864 -10 4 C-9.67 3.01 -9.34 2.02 -9 1 C-2.25 0 -2.25 0 0 0 Z " fill="#9160A3" transform="translate(251,241)"/>
<path d="M0 0 C1.48206495 0.254496 2.96068615 0.52911762 4.4375 0.8125 C5.67306641 1.03873047 5.67306641 1.03873047 6.93359375 1.26953125 C7.95646484 1.63111328 7.95646484 1.63111328 9 2 C9.33 2.99 9.66 3.98 10 5 C6.7 4.01 3.4 3.02 0 2 C0 1.34 0 0.68 0 0 Z " fill="#B275B4" transform="translate(187,307)"/>
<path d="M0 0 C2.31 0 4.62 0 7 0 C7.33 0.66 7.66 1.32 8 2 C3.545 2.495 3.545 2.495 -1 3 C-0.67 2.01 -0.34 1.02 0 0 Z " fill="#9563A2" transform="translate(325,211)"/>
<path d="M0 0 C1.32 0.66 2.64 1.32 4 2 C3.67 2.66 3.34 3.32 3 4 C0.69 4 -1.62 4 -4 4 C-2.68 2.68 -1.36 1.36 0 0 Z " fill="#DB9DD2" transform="translate(93,157)"/>
<path d="M0 0 C-0.66 2.64 -1.32 5.28 -2 8 C-2.66 8 -3.32 8 -4 8 C-4 5.69 -4 3.38 -4 1 C-2 0 -2 0 0 0 Z " fill="#EAC0DA" transform="translate(278,125)"/>
<path d="M0 0 C0.66 0.33 1.32 0.66 2 1 C-0.06756277 3.7972908 -1.14440371 4.02692273 -4.6875 4.6875 C-5.780625 4.790625 -6.87375 4.89375 -8 5 C-5.45378681 2.99940392 -3.01962385 1.20784954 0 0 Z " fill="#E9BBDB" transform="translate(292,117)"/>
<path d="M0 0 C3.465 1.98 3.465 1.98 7 4 C6.67 4.66 6.34 5.32 6 6 C3.0625 5.1875 3.0625 5.1875 0 4 C-0.33 3.01 -0.66 2.02 -1 1 C-0.67 0.67 -0.34 0.34 0 0 Z " fill="#BF8EBF" transform="translate(150,185)"/>
<path d="M0 0 C5.75 1.875 5.75 1.875 8 3 C8 3.66 8 4.32 8 5 C6.68 5.33 5.36 5.66 4 6 C3.67 5.01 3.34 4.02 3 3 C2.01 2.67 1.02 2.34 0 2 C0 1.34 0 0.68 0 0 Z " fill="#D796D0" transform="translate(344,138)"/>
<path d="M0 0 C4.455 0.99 4.455 0.99 9 2 C9 2.66 9 3.32 9 4 C6.36 3.67 3.72 3.34 1 3 C0.67 2.01 0.34 1.02 0 0 Z " fill="#E8BCDC" transform="translate(202,113)"/>
<path d="M0 0 C0.33 0 0.66 0 1 0 C1.25 2.8125 1.25 2.8125 1 6 C-1 7.875 -1 7.875 -3 9 C-2.01 6.03 -1.02 3.06 0 0 Z " fill="#A364AA" transform="translate(291,253)"/>
<path d="M0 0 C0.33 0.66 0.66 1.32 1 2 C-1.46153846 5.81538462 -1.46153846 5.81538462 -4.1875 6.75 C-4.785625 6.8325 -5.38375 6.915 -6 7 C-6 6.34 -6 5.68 -6 5 C-5.01 5 -4.02 5 -3 5 C-2.87625 4.360625 -2.7525 3.72125 -2.625 3.0625 C-2.41875 2.381875 -2.2125 1.70125 -2 1 C-1.34 0.67 -0.68 0.34 0 0 Z " fill="#E4A7DD" transform="translate(266,244)"/>
<path d="M0 0 C0.78375 0.04125 1.5675 0.0825 2.375 0.125 C2.375 1.445 2.375 2.765 2.375 4.125 C0.065 3.465 -2.245 2.805 -4.625 2.125 C-2.625 0.125 -2.625 0.125 0 0 Z " fill="#D8A9D1" transform="translate(194.625,161.875)"/>
</svg>
